<svg width="410" height="410" viewBox="0 0 410 410" fill="none" xmlns="http://www.w3.org/2000/svg">
<path d="M69.1139 125.434C87.8535 119.798 108.155 95.2969 115.963 83.7508C127.09 63.79 91.3672 83.7509 73.7989 93.1442C56.2305 102.538 45.6895 132.479 69.1139 125.434Z" fill="#E7F6FF"/>
<path d="M380.659 296.601C380.659 316.546 369.574 335.869 358.52 349.701C349.525 360.96 335.271 365.876 320.881 365.876H63.5712C49.1307 365.876 39.0459 345.385 36.5544 331.126C32.1331 305.82 8.90149 277.6 12.8944 234.37C18.7505 170.965 58.5722 151.591 100.151 127.52C141.729 103.449 114.791 68.2244 186.236 47.0893C257.68 25.9542 333.225 95.8174 330.882 160.984C328.54 226.151 380.659 235.544 380.659 296.601Z" fill="#E7F6FF"/>
<path d="M278.995 303.333C284.037 337.599 310.128 357.404 323.677 363.496C324.112 363.692 324.571 363.782 325.048 363.782H328.866C331.136 363.782 332.809 361.653 332.195 359.466C321.754 322.302 297.54 305.256 283.03 299.935C280.799 299.117 278.65 300.982 278.995 303.333Z" fill="white"/>
<path fill-rule="evenodd" clip-rule="evenodd" d="M282.628 301.033C281.291 300.544 279.925 301.622 280.151 303.162C285.117 336.908 310.837 356.44 324.157 362.43C324.427 362.552 324.721 362.612 325.048 362.612H328.866C330.393 362.612 331.467 361.194 331.071 359.783C320.739 323.009 296.814 306.234 282.628 301.033ZM277.839 303.503C277.373 300.343 280.306 297.691 283.433 298.838C298.265 304.276 322.77 321.596 333.322 359.15C334.153 362.111 331.881 364.951 328.866 364.951H325.048C324.421 364.951 323.796 364.832 323.197 364.562C309.42 358.366 282.957 338.291 277.839 303.503Z" fill="#1B3862"/>
<path fill-rule="evenodd" clip-rule="evenodd" d="M300 323.055C296.386 319.341 293.121 316.366 290.259 313.821L291.812 312.073C295.186 315.073 299.148 318.696 303.584 323.426C306.879 326.938 310.434 331.057 314.203 335.983V330.941H316.54V339.106C319.76 343.501 323.125 348.485 326.607 354.174C328.259 356.872 329.939 359.73 331.642 362.758L329.604 363.905C328.011 361.071 326.438 358.388 324.891 355.849L317.384 354.587L317.772 352.282L323.256 353.203C320.208 348.341 317.26 344.028 314.43 340.181C310.064 334.246 305.973 329.417 302.224 325.394H294.634V323.055H300Z" fill="#1B3862"/>
<path d="M319.9 243.831C298.062 289.962 313.732 340.549 325.592 362.466C326.191 363.572 327.351 364.232 328.608 364.232H334.098C335.942 364.232 337.473 362.786 337.586 360.946C341.161 302.763 332.286 262.198 325.578 244.025C324.596 241.362 321.114 241.266 319.9 243.831Z" fill="#1B3862"/>
<path d="M370.482 270.124C342.49 289.031 328.899 335.22 324.899 360.297C324.566 362.388 326.204 364.232 328.321 364.232H336.408C337.315 364.232 338.189 363.882 338.831 363.242C364.378 337.799 373.442 295.803 375.275 273.015C375.489 270.346 372.701 268.625 370.482 270.124Z" fill="white"/>
<path fill-rule="evenodd" clip-rule="evenodd" d="M374.11 272.922C374.251 271.164 372.491 270.179 371.136 271.093C357.409 280.363 347.127 296.399 339.766 313.362C332.415 330.301 328.041 348.02 326.054 360.482C325.838 361.832 326.892 363.062 328.321 363.062H336.408C337.016 363.062 337.59 362.828 338.007 362.414C350.609 349.863 359.186 333.182 364.84 316.752C370.493 300.329 373.2 284.231 374.11 272.922ZM369.828 269.155C372.913 267.073 376.729 269.527 376.44 273.109C375.516 284.586 372.775 300.88 367.051 317.514C361.329 334.139 352.6 351.179 339.656 364.07C338.787 364.935 337.613 365.4 336.408 365.4H328.321C325.517 365.4 323.293 362.944 323.744 360.113C325.757 347.497 330.179 329.583 337.621 312.431C345.053 295.304 355.562 278.79 369.828 269.155Z" fill="#1B3862"/>
<path d="M394.006 319.546C366.242 320.586 345.29 343.651 335.702 359.235C334.328 361.471 335.995 364.232 338.619 364.232H348.329C348.817 364.232 349.295 364.133 349.738 363.931C367.953 355.642 386.478 336.636 396.408 324.661C398.17 322.537 396.764 319.443 394.006 319.546Z" fill="#1B3862"/>
<path fill-rule="evenodd" clip-rule="evenodd" d="M323.695 251.355C323.386 260.679 323.338 269.687 323.49 278.287C323.607 284.945 323.844 291.357 324.172 297.484L329.179 289.389L331.168 290.619L324.405 301.549C324.878 309.281 325.492 316.517 326.186 323.173C327.008 331.069 327.941 338.146 328.884 344.25L333.222 337.084L335.223 338.295L329.454 347.822C330.605 354.792 331.735 360.257 332.657 363.947L330.389 364.515C329.428 360.67 328.258 354.992 327.077 347.776C325.979 341.068 324.87 333.022 323.908 323.874L315.461 316.528L316.995 314.764L323.564 320.475C322.977 314.504 322.459 308.1 322.049 301.321C321.616 294.165 321.303 286.594 321.158 278.676L315.26 269.966L317.196 268.655L321.097 274.416C321.02 266.971 321.094 259.239 321.358 251.277L323.695 251.355Z" fill="white"/>
<path fill-rule="evenodd" clip-rule="evenodd" d="M355.705 306.627C360.116 296.755 364.665 287.5 368.967 280.254L366.957 279.061C362.236 287.011 357.255 297.29 352.497 308.093C349.907 313.973 347.382 320.015 344.997 325.934L343.017 315.871L340.724 316.322L343.401 329.93C340.934 336.158 338.646 342.174 336.632 347.632C334.292 353.971 332.321 359.56 330.866 363.856L333.08 364.606C334.498 360.42 336.412 354.993 338.68 348.832L350.561 341.846L349.374 339.831L339.968 345.364C341.72 340.674 343.65 335.644 345.701 330.472C348.436 323.577 351.388 316.434 354.427 309.51L365.18 305.96L364.446 303.739L355.705 306.627Z" fill="#1B3862"/>
<path fill-rule="evenodd" clip-rule="evenodd" d="M390.021 326.166C383.606 328.946 377.087 332.745 370.867 336.959C366.949 339.613 363.156 342.428 359.588 345.249H365.713V347.586H356.682C348.415 354.355 341.642 360.892 337.776 365.03L336.067 363.434C340.059 359.161 347.035 352.437 355.527 345.511C359.789 342.036 364.438 338.504 369.287 335.205L372.75 327.75L374.871 328.735L373.006 332.749C378.258 329.386 383.694 326.359 389.091 324.02L390.021 326.166Z" fill="white"/>
<path d="M152.273 292.029C141.447 303.758 180.418 336.011 180.419 365.876H208.835H237.252C234.366 364.066 229.458 358.166 232.921 349.044C237.252 337.64 263.774 333.297 258.362 321.351C252.948 309.405 240.499 321.351 228.592 314.292C216.684 307.233 229.674 300.717 245.372 284.97C261.068 269.224 232.921 270.853 221.013 276.826C209.106 282.799 209.647 271.939 211.27 249.134C212.895 226.328 203.152 207.866 195.033 212.21C186.914 216.554 200.445 266.51 191.786 261.08C183.125 255.65 174.465 236.103 171.759 254.563C169.053 273.026 189.079 301.804 180.419 303.975C171.759 306.147 165.804 277.369 152.273 292.029Z" fill="white"/>
<path d="M155.048 87.6628C155.048 84.4347 157.666 81.818 160.894 81.818H375.982C379.21 81.818 381.828 84.4347 381.828 87.6628V252.356C381.828 255.584 379.21 258.202 375.982 258.202H160.894C157.666 258.202 155.048 255.584 155.048 252.356V87.6628Z" fill="white"/>
<path fill-rule="evenodd" clip-rule="evenodd" d="M153.88 87.6628C153.88 83.7892 157.02 80.649 160.894 80.649H375.982C379.857 80.649 382.996 83.7891 382.996 87.6628V252.356C382.996 256.231 379.857 259.37 375.982 259.37H160.894C157.02 259.37 153.88 256.231 153.88 252.356V87.6628ZM160.894 82.9869C158.311 82.9869 156.218 85.0803 156.218 87.6628V252.356C156.218 254.939 158.311 257.033 160.894 257.033H375.982C378.565 257.033 380.659 254.939 380.659 252.356V87.6628C380.659 85.0803 378.565 82.9869 375.982 82.9869H160.894Z" fill="#1B3862"/>
<path d="M155.048 87.6628C155.048 84.4347 157.666 81.818 160.894 81.818H375.982C379.21 81.818 381.828 84.4347 381.828 87.6628V110.491H155.048V87.6628Z" fill="#1B3862"/>
<path d="M183.588 95.6533C183.588 98.9755 180.895 101.669 177.572 101.669C174.25 101.669 171.558 98.9755 171.558 95.6533C171.558 92.331 174.25 89.6379 177.572 89.6379C180.895 89.6379 183.588 92.331 183.588 95.6533ZM203.639 95.6533C203.639 98.9755 200.946 101.669 197.624 101.669C194.302 101.669 191.608 98.9755 191.608 95.6533C191.608 92.331 194.302 89.6379 197.624 89.6379C200.946 89.6379 203.639 92.331 203.639 95.6533ZM223.69 95.6533C223.69 98.9755 220.997 101.669 217.674 101.669C214.352 101.669 211.66 98.9755 211.66 95.6533C211.66 92.331 214.352 89.6379 217.674 89.6379C220.997 89.6379 223.69 92.331 223.69 95.6533Z" fill="white"/>
<path fill-rule="evenodd" clip-rule="evenodd" d="M182.512 138.52C182.611 134.669 185.708 131.479 189.62 131.479H217.231C220.975 131.479 224.105 134.436 224.173 138.221C224.419 151.898 222.813 160.496 215.942 170.818C214.674 172.723 212.521 173.785 210.285 173.785H184.293C178.834 173.785 175.639 167.937 177.72 163.147C180.84 155.969 182.24 149.014 182.512 138.52ZM189.62 133.817C187.034 133.817 184.917 135.937 184.849 138.58C184.571 149.293 183.134 156.56 179.864 164.079C178.358 167.545 180.751 171.447 184.293 171.447H210.285C211.793 171.447 213.189 170.734 213.996 169.523C220.52 159.721 222.077 151.643 221.836 138.263C221.791 135.794 219.741 133.817 217.231 133.817H189.62ZM240.394 168.464C240.494 164.612 243.591 161.422 247.502 161.422H275.114C278.858 161.422 281.989 164.38 282.057 168.164C282.303 181.842 280.696 190.44 273.826 200.762C272.556 202.667 270.405 203.729 268.169 203.729H242.176C236.716 203.729 233.523 197.88 235.604 193.091C238.724 185.913 240.122 178.958 240.394 168.464ZM247.502 163.761C244.918 163.761 242.801 165.881 242.731 168.524C242.454 179.237 241.017 186.502 237.748 194.023C236.242 197.489 238.635 201.391 242.176 201.391H268.169C269.676 201.391 271.073 200.676 271.878 199.466C278.404 189.665 279.959 181.586 279.719 168.207C279.675 165.737 277.625 163.761 275.114 163.761H247.502Z" fill="#5EBCF4"/>
<path fill-rule="evenodd" clip-rule="evenodd" d="M316.319 147.209C316.419 143.358 319.515 140.168 323.426 140.168H351.038C354.783 140.168 357.913 143.126 357.981 146.91C358.227 160.587 356.621 169.184 349.749 179.506C348.48 181.413 346.329 182.475 344.093 182.475H318.1C312.642 182.475 309.446 176.625 311.528 171.836C314.648 164.659 316.046 157.704 316.319 147.209ZM323.426 142.505C320.842 142.505 318.725 144.626 318.656 147.269C318.378 157.983 316.941 165.248 313.672 172.769C312.166 176.234 314.559 180.136 318.1 180.136H344.093C345.6 180.136 346.997 179.421 347.803 178.211C354.328 168.41 355.883 160.33 355.642 146.952C355.599 144.483 353.549 142.505 351.038 142.505H323.426Z" fill="#E7F6FF"/>
<path d="M197.189 132.845C197.189 129.617 199.807 127 203.035 127H203.509C206.737 127 209.354 129.617 209.354 132.845V133.32C209.354 136.547 206.737 139.165 203.509 139.165H203.035C199.807 139.165 197.189 136.547 197.189 133.32V132.845ZM255.075 162.788C255.075 159.56 257.69 156.944 260.918 156.944H261.394C264.622 156.944 267.238 159.56 267.238 162.788V163.263C267.238 166.491 264.622 169.107 261.394 169.107H260.918C257.69 169.107 255.075 166.491 255.075 163.263V162.788Z" fill="#5EBCF4"/>
<path d="M330.999 141.533C330.999 138.305 333.614 135.689 336.842 135.689H337.318C340.546 135.689 343.163 138.305 343.163 141.533V142.009C343.163 145.237 340.546 147.853 337.318 147.853H336.842C333.614 147.853 330.999 145.237 330.999 142.009V141.533Z" fill="#E7F6FF"/>
<path fill-rule="evenodd" clip-rule="evenodd" d="M211.526 151.629H193.28V149.291H211.526V151.629ZM208.485 162.055H190.239V159.717H208.485V162.055ZM269.41 181.573H251.163V179.234H269.41V181.573ZM266.369 191.999H248.123V189.661H266.369V191.999Z" fill="#5EBCF4"/>
<path fill-rule="evenodd" clip-rule="evenodd" d="M259.316 220.271H184.592V217.933H259.316V220.271ZM221.274 234.173H184.592V231.834H221.274V234.173Z" fill="#E7F6FF"/>
<path d="M249.735 166.568C249.735 172.055 245.286 176.504 239.798 176.504C234.311 176.504 229.862 172.055 229.862 166.568C229.862 161.081 234.311 156.632 239.798 156.632C245.286 156.632 249.735 161.081 249.735 166.568Z" fill="#1B3862"/>
<path d="M241.676 165.926H245.058V168.228H241.676V171.828H239.098V168.228H235.706V165.926H239.098V162.476H241.676V165.926Z" fill="white"/>
<path d="M164.796 365.627L159.65 323.89L50.4485 319.318L47.5898 365.627H164.796Z" fill="#1B3862"/>
<path d="M89.429 156.546L87.1421 168.554L89.429 181.131C95.3369 181.894 107.382 183.419 108.296 183.419C109.211 183.419 115.919 177.701 119.159 174.842L115.729 156.546C125.334 153.345 128.497 139.205 128.879 132.534C131.166 105.091 112.87 101.66 109.44 101.66C106.009 101.66 84.2835 101.66 81.4248 124.53C79.1378 142.825 85.808 153.497 89.429 156.546ZM225.246 188.595C222.857 192.114 213.361 201.828 212.273 203.564L216.553 213.543L228.265 216.263C230.901 212.525 238.44 208.638 240.233 202.805C241.666 198.138 236.181 191.799 233.494 190.77L241.695 179.535C242.79 178.036 242.481 175.935 241.001 174.814C239.553 173.718 237.501 173.952 236.336 175.343L225.246 188.595Z" fill="#5FA2CA"/>
<path d="M95.717 145.113C93.4302 158.376 90.1904 159.787 88.8562 158.834C72.8478 148.543 73.234 115.662 83.1389 104.519C92.2867 94.2278 99.1475 98.23 118.015 93.656C136.883 89.0822 143.171 97.0865 139.74 107.378C134.802 122.192 119.158 114.239 115.156 115.954C111.154 117.669 106.008 122.243 103.721 131.391C101.434 140.538 100.291 138.823 98.5758 133.677C96.8605 128.532 92.2867 121.099 88.8562 130.247C86.112 137.565 92.2867 143.206 95.717 145.113Z" fill="#1B3862"/>
<path d="M46.4463 335.898C53.3071 338.642 94.2814 338.566 113.911 338.184C129.538 338.184 161.823 337.155 165.939 333.039C170.056 328.923 168.797 297.4 167.655 285.013C172.8 291.302 183.091 294.733 192.238 288.443C201.387 282.154 232.832 223.838 232.832 216.976C232.832 210.115 219.682 198.682 213.964 198.682C208.247 198.682 182.518 230.126 178.517 227.268C174.515 224.409 173.943 207.829 159.65 187.247C148.215 170.78 126.68 166.282 118.485 166.092C117.723 170.285 115.626 178.671 104.192 178.671C92.7569 178.671 87.9924 170.285 86.4678 166.092C79.0353 167.236 65.3137 172.382 60.1681 176.383C55.0224 180.386 51.0203 199.253 48.7333 212.403C46.4463 225.553 37.8704 332.468 46.4463 335.898Z" fill="#5EBCF4"/>
<path d="M83.3248 279.938C84.9322 278.859 87.1112 279.285 88.1917 280.892L113.667 318.793C114.748 320.4 114.321 322.58 112.713 323.659L60.9916 358.426C59.3841 359.507 57.2051 359.079 56.1246 357.472L30.649 319.572C29.5685 317.965 29.9957 315.786 31.6031 314.705L83.3248 279.938Z" fill="white"/>
<path fill-rule="evenodd" clip-rule="evenodd" d="M82.6728 278.968C84.816 277.528 87.7213 278.098 89.162 280.24L114.638 318.141C116.078 320.284 115.509 323.189 113.366 324.63L61.6438 359.396C59.5006 360.837 56.5953 360.267 55.1547 358.124L29.679 320.225C28.2384 318.081 28.808 315.177 30.9512 313.735L82.6728 278.968ZM87.2216 281.546C86.5013 280.474 85.0486 280.189 83.977 280.909L32.2554 315.675C31.1838 316.396 30.899 317.848 31.6193 318.92L57.095 356.82C57.8153 357.892 59.268 358.176 60.3396 357.456L112.061 322.689C113.133 321.969 113.418 320.516 112.697 319.445L87.2216 281.546Z" fill="#1B3862"/>
<path d="M92.1854 322.175C88.5263 320.347 86.468 318.364 85.8963 317.602C83.0376 320.841 76.9773 328.465 75.605 333.039C73.8899 338.756 83.0376 347.332 85.8963 347.904C88.755 348.475 97.3309 343.33 99.0462 340.471C100.418 338.184 97.3309 333.991 95.6158 332.468C96.5686 331.132 99.9609 329.609 99.0462 327.321C97.9027 324.463 96.7593 324.463 92.1854 322.175Z" fill="#5FA2CA"/>
<path d="M17.2877 247.85C32.1528 205.543 50.8294 182.673 60.1677 176.383C86.6962 188.276 79.2256 218.311 72.1743 231.841C68.1721 238.512 60.1677 253.797 60.1677 261.572C60.1677 271.292 90.4697 309.598 88.7545 317.602C87.0394 325.606 75.0329 335.325 69.8873 334.183C64.7416 333.039 38.4418 309.598 23.5768 289.587C11.6847 273.578 14.429 255.092 17.2877 247.85Z" fill="#5EBCF4"/>
<path d="M163.08 228.411L167.653 285.585C169.483 286.958 172.99 289.587 174.515 290.158C174.057 285.586 166.701 247.088 163.08 228.411ZM17.86 246.707C22.0528 253.186 29.1804 271.063 24.1491 290.731C18.813 285.013 10.0845 268.204 17.86 246.707Z" fill="#1B3862"/>
<path d="M167.653 285.013C181.376 278.61 192.811 281.201 196.812 283.298C195.478 285.965 190.752 291.417 182.518 291.874C174.286 292.331 169.178 287.491 167.653 285.013ZM67.6011 262.716C67.1436 253.567 70.8409 237.559 72.7467 230.699C71.6032 232.414 68.4015 237.788 64.7424 245.564C60.1684 255.282 59.0251 261.572 61.8837 267.29C63.1217 269.765 67.8784 277.938 73.0696 286.728L75.6054 284.599C71.5748 276.417 67.8975 268.644 67.6011 262.716Z" fill="#1B3862"/>
<path d="M106.478 351.906L102.476 366.2H106.478V351.906Z" fill="white"/>
<path d="M103.62 156.373C109.108 158.203 113.72 157.135 115.626 156.373L117.341 164.377C110.023 163.463 105.144 158.469 103.62 156.373Z" fill="#1B3862"/>
</svg>
