<svg width="746" height="746" viewBox="0 0 746 746" fill="none" xmlns="http://www.w3.org/2000/svg">
<path d="M714.917 735.639H36.6092C32.0503 735.639 28.3203 731.909 28.3203 727.35V694.885C28.3203 690.326 32.0503 686.596 36.6092 686.596H714.917C719.476 686.596 723.206 690.326 723.206 694.885V727.35C723.206 731.909 719.476 735.639 714.917 735.639Z" fill="#F7F7F7"/>
<path d="M381.289 698.339C508.705 698.339 611.996 595.048 611.996 467.631C611.996 340.215 508.705 236.924 381.289 236.924C253.873 236.924 150.582 340.215 150.582 467.631C150.582 595.048 253.873 698.339 381.289 698.339Z" fill="#F3FBFF"/>
<path d="M667.255 630.577C672.16 618.075 677.133 604.191 672.505 591.619C671.4 588.58 669.673 585.334 670.709 582.225C672.091 578.012 677.616 576.561 679.412 572.555C681.485 568.134 678.238 563.023 679.067 558.257C679.896 553.421 684.662 550.244 689.29 548.517C693.918 546.79 698.96 545.685 702.69 542.508C709.805 536.291 708.976 525.17 707.387 515.776C705.799 506.451 704.624 495.399 711.463 488.837C698.891 491.255 686.044 493.741 675.13 500.373C664.216 507.004 655.513 518.746 656.134 531.525C656.48 537.949 658.967 544.787 656.065 550.451C652.888 556.599 644.392 559.016 642.251 565.579C639.764 573.108 647.155 580.015 650.056 587.406C652.819 594.382 651.506 602.188 652.128 609.579C652.75 617.039 656.618 625.466 664.009 626.571L667.255 630.577Z" fill="#FD9F00"/>
<path opacity="0.31" d="M667.255 630.577C672.16 618.075 677.133 604.191 672.505 591.619C671.4 588.58 669.673 585.334 670.709 582.225C672.091 578.012 677.616 576.561 679.412 572.555C681.485 568.134 678.238 563.023 679.067 558.257C679.896 553.421 684.662 550.244 689.29 548.517C693.918 546.79 698.96 545.685 702.69 542.508C709.805 536.291 708.976 525.17 707.387 515.776C705.799 506.451 704.624 495.399 711.463 488.837C698.891 491.255 686.044 493.741 675.13 500.373C664.216 507.004 655.513 518.746 656.134 531.525C656.48 537.949 658.967 544.787 656.065 550.451C652.888 556.599 644.392 559.016 642.251 565.579C639.764 573.108 647.155 580.015 650.056 587.406C652.819 594.382 651.506 602.188 652.128 609.579C652.75 617.039 656.618 625.466 664.009 626.571L667.255 630.577Z" fill="white"/>
<path d="M662.213 614.207C662.075 577.874 669.12 501.823 711.048 489.114" stroke="white" stroke-width="0.75" stroke-miterlimit="10" stroke-linecap="round"/>
<path d="M638.037 627.538C630.577 613.585 622.841 598.043 626.502 582.64C627.4 578.91 628.92 574.904 627.331 571.381C625.19 566.684 618.489 565.648 615.796 561.227C612.825 556.392 615.865 549.899 614.207 544.442C612.549 538.847 606.54 535.877 600.945 534.426C595.35 533.045 589.271 532.492 584.436 529.176C575.249 522.891 574.696 509.698 575.249 498.577C575.802 487.456 575.663 474.332 566.753 467.631C581.811 468.737 597.215 469.911 610.891 476.197C624.568 482.482 636.449 495.054 637.416 510.112C637.899 517.641 635.896 525.999 640.11 532.285C644.668 539.054 654.961 540.712 658.414 548.103C662.351 556.599 654.684 565.648 652.267 574.696C650.056 583.192 652.612 592.172 652.888 600.944C653.165 609.717 649.78 620.147 641.284 622.496L638.037 627.538Z" fill="#FD9F00"/>
<path d="M641.698 607.645C636.863 565.026 618.213 476.957 567.305 467.908" stroke="white" stroke-width="0.75" stroke-miterlimit="10" stroke-linecap="round"/>
<path d="M685.215 709.391H619.595C615.036 709.391 611.306 705.661 611.306 701.102L605.78 606.47C605.78 601.912 609.51 598.182 614.069 598.182H690.741C695.3 598.182 699.03 601.912 699.03 606.47L693.504 701.102C693.504 705.661 689.774 709.391 685.215 709.391Z" fill="#CCECFF"/>
<path d="M90.1729 408.852L132.515 402.432L161.302 592.288L118.96 598.708L90.1729 408.852Z" fill="#FD9F00"/>
<path d="M111.329 405.66L132.5 402.45L161.288 592.306L140.117 595.516L111.329 405.66Z" fill="#FD9F00"/>
<path d="M132.553 402.633L90.2109 409.057L100.158 383.568L105.822 369.201L115.492 381.289L132.553 402.633Z" fill="#C2E8FF"/>
<path d="M115.492 381.289L100.157 383.568L105.821 369.201L115.492 381.289Z" fill="#0E418C"/>
<path d="M166.548 358.965L209.203 362.785L192.076 554.042L149.422 550.223L166.548 358.965Z" fill="#FD9F00"/>
<path d="M187.917 360.89L209.244 362.8L192.117 554.058L170.79 552.148L187.917 360.89Z" fill="#FD9F00"/>
<path d="M209.225 362.984L166.538 359.185L182.286 336.805L191.197 324.165L197.69 338.187L209.225 362.984Z" fill="#C2E8FF"/>
<path d="M197.69 338.187L182.287 336.805L191.197 324.165L197.69 338.187Z" fill="#0E418C"/>
<path d="M237.269 710.081H69.0048L46.9702 449.672H250.739L237.269 710.081Z" fill="#CCECFF"/>
<path opacity="0.5" d="M148.854 710.081H237.269L250.739 449.672H148.854V710.081Z" fill="#CCECFF"/>
<path d="M185.809 636.587H613.378V695.369H185.809V636.587Z" fill="#C2E8FF"/>
<path d="M187.605 636.587V695.369H636.172V699.789C636.172 705.246 631.406 709.667 625.535 709.667H189.539C175.656 709.667 164.396 699.306 164.396 686.458V647.155C164.396 634.307 175.656 623.946 189.539 623.946H625.535C631.406 623.946 636.172 628.367 636.172 633.824V636.656H187.605V636.587Z" fill="#FD9F00"/>
<path d="M185.809 662.766H613.378V695.3H185.809V662.766Z" fill="#C2E8FF"/>
<path d="M241.068 565.026H588.511V616.141H241.068V565.026Z" fill="#CCECFF"/>
<path d="M241.068 565.026V616.141H601.635V620.009C601.635 624.775 597.767 628.574 593.07 628.574H242.588C231.467 628.574 222.418 619.525 222.418 608.404V574.213C222.418 563.092 231.467 554.043 242.588 554.043H593.07C597.767 554.043 601.635 557.911 601.635 562.608V565.095H241.068V565.026Z" fill="#2AA8F4"/>
<path d="M391.236 391.028C386.47 384.743 386.055 376.108 390.545 369.546C394.137 364.297 396.554 357.804 396.278 353.038C395.726 344.472 390.407 336.598 383.154 331.901C373.622 325.684 360.912 324.786 350.62 329.621C340.328 334.457 332.868 344.818 331.556 356.077C330.589 364.158 332.454 373 328.309 380.046C325.27 385.088 319.675 388.058 314.149 390.061C308.554 391.995 302.683 393.308 297.571 396.278C292.46 399.248 288.108 404.36 288.177 410.3C288.246 414.79 290.802 418.934 291.078 423.355C291.493 429.848 286.934 435.581 282.099 439.864C277.194 444.146 271.599 447.876 268.284 453.471C262.827 462.727 265.383 475.23 272.29 483.518C279.198 491.807 289.559 496.435 299.92 499.129C328.24 506.589 358.08 501.754 387.299 501.271C396.347 501.132 405.603 501.409 414.376 499.129C423.148 496.85 431.713 491.6 435.374 483.311C439.104 475.022 437.239 464.938 432.266 457.408C427.292 449.879 419.487 444.423 411.267 440.554C405.327 437.722 398.972 435.512 394.137 431.091C389.302 426.671 386.47 419.141 389.716 413.408C390.959 411.198 393.032 409.471 394.206 407.261C396.554 402.978 395.587 397.521 392.963 393.377C392.479 392.686 391.927 391.926 391.236 391.028Z" fill="#0E418C"/>
<path d="M241.068 587.82H588.511V616.141H241.068V587.82Z" fill="#CCECFF"/>
<path d="M397.867 515.293L440.693 545.685L493.189 654.132H483.519L424.806 558.119C424.806 558.119 404.774 558.809 397.867 552.593C390.959 546.376 351.242 519.437 351.242 519.437L397.867 515.293Z" fill="#1B3862"/>
<path d="M322.093 506.589C314.287 527.726 319.813 557.428 346.061 558.809C372.309 560.191 380.598 558.809 380.598 558.809L431.713 662.42H443.456L403.393 546.376L354.696 519.437L322.093 506.589Z" fill="#0E418C"/>
<path d="M361.948 386.124C368.856 395.104 385.433 419.97 391.65 447.6C397.867 475.23 415.135 515.293 415.135 515.293H395.104L375.763 449.672L357.804 388.196L361.948 386.124Z" fill="#5FA2CA"/>
<path d="M383.223 349.446C384.259 366.369 376.868 377.973 366.3 378.526C355.732 379.079 348.824 363.744 352.002 349.446C359.393 336.736 369.477 335.7 369.477 335.7H375.832L383.223 349.446Z" fill="#CAEBFF"/>
<path d="M376.178 339.361C374.244 345.301 369.961 350.413 364.435 353.314C358.909 356.215 352.278 356.906 346.269 355.11L361.327 333.628H374.244L386.608 343.436L384.743 354.695C379.908 351.034 376.178 339.361 376.178 339.361Z" fill="#0E418C"/>
<path d="M363.122 376.523C360.912 385.088 361.603 394.068 361.603 395.449C359.53 398.212 349.86 397.521 348.479 387.851C350.551 375.418 354.695 361.603 354.695 361.603L358.149 369.201L363.122 376.523Z" fill="#CAEBFF"/>
<path d="M349.86 380.529C341.226 383.361 312.215 396.485 310.833 399.248C312.906 406.846 323.267 519.437 323.267 519.437H370.237C370.237 519.437 364.021 457.27 367.474 453.126C370.928 448.981 381.98 434.476 380.598 432.404C379.217 430.331 361.672 385.779 361.672 385.779L349.86 380.529Z" fill="#2AA8F4"/>
<path d="M310.833 399.248C304.064 404.429 275.605 451.054 284.585 475.92C293.565 500.787 322.921 515.431 322.921 515.431V501.754C322.921 501.754 299.091 482.828 300.472 469.013C301.853 455.198 318.431 426.878 318.431 426.878L310.833 399.248Z" fill="#5FA2CA"/>
<path d="M422.112 527.381H320.435C317.257 527.381 314.633 524.756 314.633 521.578L311.87 456.511C311.87 453.333 314.494 450.708 317.672 450.708H423.493C426.671 450.708 429.296 453.333 429.296 456.511L427.914 521.578C427.914 524.756 425.289 527.381 422.112 527.381Z" fill="#FD9F00"/>
<path d="M441.798 662.42C448.636 663.94 457.892 671.469 462.313 675.337C463.211 676.097 462.658 677.617 461.415 677.617C454.3 677.478 438.206 676.719 434.476 673.541C429.641 669.397 431.022 662.489 431.022 662.489H441.798V662.42ZM493.051 653.855C499.129 655.513 507.142 662.558 511.148 666.358C512.046 667.186 511.355 668.637 510.181 668.568C503.481 668.084 489.113 666.772 485.867 663.664C481.584 659.657 483.173 653.372 483.173 653.372L493.051 653.855Z" fill="#1A91D8"/>
<path d="M370.928 499.406C376.65 499.406 381.289 494.767 381.289 489.044C381.289 483.322 376.65 478.683 370.928 478.683C365.205 478.683 360.566 483.322 360.566 489.044C360.566 494.767 365.205 499.406 370.928 499.406Z" fill="white"/>
<path d="M279.75 636.172L266.626 628.574L253.502 636.172V587.82H279.75V636.172ZM483.242 349.86C483.242 351.173 482.759 352.347 481.93 353.314C482.759 354.212 483.242 355.455 483.242 356.768V361.05C483.242 361.948 482.966 362.846 482.552 363.606C482.966 364.366 483.242 365.264 483.242 366.162V370.444C483.242 373.276 480.963 375.556 478.131 375.556H433.647C430.815 375.556 428.536 373.276 428.536 370.444V366.093C428.536 365.195 428.812 364.297 429.226 363.537C428.812 362.777 428.536 361.879 428.536 360.981V356.699C428.536 355.386 429.019 354.212 429.848 353.245C429.019 352.347 428.536 351.104 428.536 349.791V345.509C428.536 342.676 430.815 340.397 433.647 340.397H478.131C480.963 340.397 483.242 342.676 483.242 345.509V349.86ZM518.746 253.018C518.746 277.954 504.241 299.436 483.242 309.659V332.868C483.242 334.595 481.792 336.045 480.065 336.045H431.713C429.986 336.045 428.536 334.595 428.536 332.868V309.659C407.537 299.505 393.032 277.954 393.032 253.018C393.032 218.274 421.145 190.161 455.889 190.161C490.633 190.161 518.746 218.343 518.746 253.018Z" fill="#FD9F00"/>
<path opacity="0.23" d="M477.302 353.659H435.167M477.302 363.33H435.167" stroke="#7F7F7F" stroke-width="2" stroke-miterlimit="10" stroke-linecap="round"/>
<path d="M466.664 260.755C465.904 260.064 464.799 259.719 463.625 259.857C462.174 259.995 460.793 260.824 459.895 261.998C459.135 263.034 458.721 264.277 458.514 265.452C457.892 265.106 457.201 264.761 456.579 264.346L456.372 264.208H455.474L455.267 264.346C454.576 264.761 453.955 265.106 453.333 265.452C453.126 264.277 452.711 263.034 451.951 261.998C451.123 260.824 449.672 259.995 448.222 259.857C447.047 259.719 446.011 260.064 445.182 260.755C444.146 261.722 443.801 263.103 444.146 264.554C444.699 266.488 446.287 268.076 448.152 268.422C449.327 268.629 450.432 268.56 451.606 268.284C453.333 290.733 454.024 313.458 453.54 335.907H455.612C456.096 313.389 455.405 290.595 453.678 268.146C453.678 267.938 453.678 267.731 453.609 267.524C454.438 267.179 455.198 266.764 455.958 266.281C456.718 266.695 457.477 267.179 458.306 267.524C458.306 267.731 458.306 267.938 458.237 268.146C456.51 290.595 455.82 313.389 456.303 335.907H458.375C457.892 313.458 458.583 290.664 460.309 268.284C461.415 268.56 462.589 268.698 463.763 268.422C465.559 268.076 467.217 266.488 467.769 264.554C468.046 263.103 467.7 261.722 466.664 260.755ZM448.498 266.488C447.462 266.281 446.426 265.244 446.08 264.07C445.942 263.587 445.873 262.827 446.495 262.343C446.84 261.998 447.324 261.929 447.669 261.929H447.945C448.774 261.998 449.672 262.481 450.225 263.241C450.846 264.07 451.192 265.106 451.33 266.281C450.363 266.557 449.465 266.626 448.498 266.488ZM465.697 264.07C465.352 265.244 464.385 266.281 463.28 266.488C462.382 266.695 461.415 266.557 460.517 266.281C460.724 265.106 461 264.07 461.622 263.241C462.105 262.551 463.003 262.067 463.901 261.929C464.316 261.86 464.868 261.929 465.352 262.343C465.835 262.827 465.766 263.587 465.697 264.07Z" fill="white"/>
<path d="M439.311 201.696C424.115 207.222 399.248 227.254 401.32 259.719" stroke="white" stroke-width="4" stroke-miterlimit="10" stroke-linecap="round"/>
<path d="M356.077 314.287C365.805 314.287 373.691 306.401 373.691 296.673C373.691 286.945 365.805 279.059 356.077 279.059C346.349 279.059 338.463 286.945 338.463 296.673C338.463 306.401 346.349 314.287 356.077 314.287Z" fill="#FD9F00"/>
<path d="M544.649 246.594C549.036 246.594 552.593 243.038 552.593 238.651C552.593 234.264 549.036 230.707 544.649 230.707C540.262 230.707 536.706 234.264 536.706 238.651C536.706 243.038 540.262 246.594 544.649 246.594Z" fill="#FD9F00"/>
<path d="M518.746 376.454C525.994 376.454 531.87 370.578 531.87 363.33C531.87 356.081 525.994 350.206 518.746 350.206C511.498 350.206 505.622 356.081 505.622 363.33C505.622 370.578 511.498 376.454 518.746 376.454Z" fill="#FD9F00"/>
<path d="M393.031 193.407C400.28 193.407 406.155 187.532 406.155 180.283C406.155 173.035 400.28 167.159 393.031 167.159C385.783 167.159 379.907 173.035 379.907 180.283C379.907 187.532 385.783 193.407 393.031 193.407Z" fill="#FD9F00"/>
<path opacity="0.14" d="M279.75 636.172L266.626 628.574L253.502 636.172V587.82H279.75V636.172Z" fill="#0C0C0C"/>
</svg>
