<svg width="807" height="807" viewBox="0 0 807 807" fill="none" xmlns="http://www.w3.org/2000/svg">
<path fill-rule="evenodd" clip-rule="evenodd" d="M641.59 615.908C777.482 614.653 803.55 685.901 553.792 670.731C510.454 668.1 441.709 647.1 384.989 643.013C323.727 638.598 204.439 644.983 186.218 644.245C114.315 641.323 71.2233 614.256 278.25 615.908C354.261 616.513 573.348 616.535 641.59 615.908Z" fill="#FD9F00"/>
<path d="M626.471 662.294C649.986 662.294 669.049 659.525 669.049 656.11C669.049 652.694 649.986 649.926 626.471 649.926C602.955 649.926 583.893 652.694 583.893 656.11C583.893 659.525 602.955 662.294 626.471 662.294Z" fill="black" fill-opacity="0.2"/>
<path d="M401.309 628.465C419.451 628.465 434.158 626.385 434.158 623.818C434.158 621.251 419.451 619.17 401.309 619.17C383.167 619.17 368.46 621.251 368.46 623.818C368.46 626.385 383.167 628.465 401.309 628.465Z" fill="black" fill-opacity="0.2"/>
<path fill-rule="evenodd" clip-rule="evenodd" d="M712.404 346.497C754.146 472.151 654.565 655.413 549.055 560.997C493.823 511.576 393.897 448.983 322.874 490.454C41.8881 654.538 22.7702 373.103 109.261 389.047C343.347 432.197 326.996 322.76 382.747 238.493C457.098 126.113 655.708 175.813 712.404 346.497Z" fill="#FD9F00"/>
<path d="M197.417 638.414C215.083 638.414 229.404 636.187 229.404 633.439C229.404 630.691 215.083 628.463 197.417 628.463C179.751 628.463 165.43 630.691 165.43 633.439C165.43 636.187 179.751 638.414 197.417 638.414Z" fill="black" fill-opacity="0.2"/>
<path d="M230.241 620.998C229.065 619.619 227.989 618.158 227.02 616.626C223.841 611.808 221.914 606.805 220.435 600.622C217.447 589.418 216.926 577.699 218.907 566.274C219.066 567.24 219.104 568.171 219.223 569.19C219.259 570.611 219.984 571.517 220.669 572.475C221.193 573.254 221.35 574.417 221.995 575.331C223.084 576.639 225.021 576.429 226.076 574.939C226.839 575.229 227.672 575.282 228.465 575.091C229.258 574.9 229.976 574.473 230.523 573.868C231.536 572.726 232.106 571.19 232.554 569.617C232.635 569.214 232.718 568.813 232.759 568.464C233.607 569.11 234.656 569.489 235.627 568.597C237.409 567.126 237.74 564.239 237.382 561.967C237.246 561.05 237.004 560.152 236.661 559.291L236.742 559.283C238.521 558.599 238.165 555.736 237.441 554.34C236.912 553.108 236.207 551.958 235.349 550.928C235.513 550.605 235.557 550.234 235.473 549.882C235.276 547.691 233.543 546.256 231.968 545.689C230.032 544.915 227.405 545.051 226.114 544.01C225.589 543.501 225.201 542.866 224.988 542.166C224.907 542.076 224.907 541.978 224.867 541.834C225.041 541.418 225.19 540.991 225.314 540.557C227.999 533.679 230.681 527.588 234.493 521.866C234.594 522.544 234.646 523.228 234.65 523.914C234.605 525.738 234.357 527.828 235.566 529.076C236.975 530.742 239.439 530.623 240.538 528.194C241.187 526.845 241.232 525.218 241.963 523.861C242.173 523.455 242.418 523.066 242.693 522.7C243.134 524.079 242.684 526.241 242.236 527.814C241.093 532.067 237.813 534.929 236.509 539.298C236.141 541.157 237.27 541.921 238.402 541.699C238.196 543.147 237.95 544.55 238.149 545.954C238.826 549.569 241.529 551.292 244.441 550.289C244.518 551.559 244.596 552.829 245.037 553.912C245.92 556.374 248.259 558.185 250.606 557.244C251.514 556.811 252.295 556.151 252.873 555.327C254.199 558.281 254.591 562.86 257.984 563.28C259.033 563.56 260.166 563.142 261.017 562.215C261.607 562.516 262.23 562.746 262.873 562.901C264.124 563.011 265.339 562.388 266.392 561.488C269.915 558.305 269.647 552.68 268.324 548.644C268.324 548.546 268.283 548.501 268.283 548.402C268.404 548.34 268.526 548.376 268.647 548.314C273.016 546.17 270 540.449 267.662 538.44L267.379 538.126C269.971 535.781 267.92 532.217 265.339 530.333C264.855 529.992 264.451 529.544 263.967 529.203C264.591 528.615 265.017 527.848 265.185 527.006C265.634 524.942 264.224 523.375 262.893 522.682C262.059 522.308 261.195 522.007 260.31 521.781C260.499 521.458 260.588 521.087 260.568 520.713C260.547 520.34 260.417 519.98 260.194 519.68C259.228 518.408 257.572 518.144 256.119 518.301C255.595 518.408 255.11 518.558 254.543 518.717C254.058 517.983 252.485 518.006 251.635 518.147C249.372 518.391 247.632 519.219 245.857 518.427C244.283 517.663 243.56 515.972 242.797 514.136C242.519 513.374 242.291 512.594 242.116 511.801C245.804 507.223 249.613 502.977 253.584 498.812C253.917 500.162 254.063 501.553 254.017 502.943C253.969 505.849 253.066 511.453 256.582 511.123C257.141 510.988 257.657 510.712 258.079 510.322C258.52 511.895 259.081 513.507 260.088 514.628C261.739 516.76 265.777 517.21 266.878 513.697C267.141 512.658 267.181 511.574 266.996 510.518C266.811 509.462 266.404 508.457 265.803 507.569C264.878 506.146 262.66 504.369 263.592 503.333C263.753 503.119 264.156 503.173 264.844 503.247C265.188 503.336 265.539 503.397 265.894 503.428C266.469 505.606 267.421 507.666 268.706 509.516C271.202 512.982 274.144 515.86 276.965 518.898C278.617 520.637 280.953 523.433 283.423 521.249C283.886 520.785 284.186 520.183 284.276 519.534C285.648 520.467 287.06 521.445 288.715 521.414C291.098 521.5 291.995 518.355 291.84 515.914C291.819 515.784 291.819 515.651 291.84 515.52C293.413 516.285 295.108 516.593 296.448 514.629C298.762 510.495 297.689 503.187 294.261 501.051C294.019 500.88 293.736 500.763 293.494 500.593C293.725 500.272 293.878 499.902 293.941 499.512C294.391 497.349 293.063 495.477 291.611 494.651C290.683 494.21 289.674 494.27 288.662 494.232C288.614 493.874 288.443 493.545 288.178 493.3C287.129 492.332 285.757 492.186 284.466 491.932C286.365 491.678 287.984 490.913 289.037 489.422C289.388 488.854 289.636 488.228 289.769 487.573C291.669 487.417 293.649 487.056 295.269 485.701C296.969 484.534 297.985 482.015 297.182 480.135C298.199 479.812 299.127 479.258 299.893 478.515C302.891 475.438 302.295 471.421 299.068 469.312C298.447 468.893 297.767 468.569 297.051 468.35C299.803 466.479 302.92 464.323 303.536 460.176C303.986 458.21 303.425 456.206 302.176 455.112C299.311 453.013 295.594 453.807 292.237 455.006C292.648 454.204 292.885 453.324 292.93 452.424C293.099 449.554 290.397 447.633 288.214 448.066C286.936 448.276 285.728 448.794 284.695 449.576L284.655 449.63C284.663 446.483 282.319 446.835 279.93 448.912C277.622 450.685 275.797 453.291 274.336 456.104C273.652 454.851 272.359 455.089 271.265 456.338L271.063 456.606C271.673 454.819 271.637 453.102 269.7 452.329C269.456 452.228 269.196 452.174 268.933 452.167C269.908 449.997 270.803 447.639 270.324 445.331C269.764 443.031 267.338 443.097 265.802 444.344C265.785 444.374 265.762 444.4 265.734 444.421C265.706 444.441 265.674 444.454 265.64 444.46C265.765 443.119 266.051 441.761 265.61 440.58C264.647 437.931 261.699 437.216 259.674 439.205C259.449 439.42 259.246 439.656 259.066 439.91C255.879 438.829 253.239 443.392 252.543 446.957C251.777 446.106 250.889 445.612 249.798 446.271C247.41 447.758 246.553 451.243 246.343 454.167C246.281 454.854 246.279 455.545 246.338 456.232C245.919 456.363 245.539 456.597 245.235 456.914C244.93 457.23 244.71 457.619 244.596 458.043C243.371 463.19 246.672 467.946 248.238 471.661C248.674 472.726 249.036 473.821 249.321 474.936C248.401 474.244 247.284 473.865 246.133 473.855C245.543 473.863 244.975 474.076 244.525 474.456C244.074 474.837 243.77 475.361 243.663 475.941C243.598 476.659 243.751 477.379 244.102 478.008C244.442 478.902 244.902 479.745 245.47 480.515C246.196 481.42 246.879 482.378 247.685 483.274C247.397 483.352 247.133 483.498 246.916 483.702C245.66 485.165 246.947 487.287 247.631 488.541C248.052 489.157 248.555 489.715 249.124 490.199C248.958 491.79 251.537 494.559 252.302 495.214C252.708 495.59 253.14 495.938 253.594 496.255C249.705 500.215 245.977 504.354 242.37 508.628C242.164 508.917 241.933 509.189 241.682 509.44C241.346 509.251 240.995 509.092 240.632 508.963C240.112 508.757 239.623 508.479 239.18 508.137C237.404 506.952 236.078 504.586 237.256 502.052C237.744 500.917 239.162 499.437 239.771 497.945C239.904 497.527 239.945 497.085 239.89 496.649C239.835 496.214 239.687 495.795 239.455 495.423C240.227 493.717 242.089 492.237 242.66 490.307C242.745 489.938 242.727 489.551 242.607 489.191C242.487 488.831 242.269 488.511 241.978 488.267C242.261 487.695 242.587 487.07 242.871 486.499C244.17 484.196 244.665 480.307 241.634 480.684C241.472 480.701 241.351 480.765 241.19 480.781C241.725 476.839 243.719 471.363 239.359 470.261C239.037 470.214 238.711 470.216 238.39 470.268C238.961 468.338 239.693 466.292 239.213 464.279C238.696 461.041 235.302 461.309 233.278 462.806C232.83 463.128 232.422 463.502 232.063 463.921C231.586 461.023 230.502 458.338 227.875 458.474C222.945 459.106 220.667 465.054 220.128 470.373C220.088 470.623 220.088 470.82 220.047 471.071C219.918 471.024 219.781 471.005 219.644 471.016C218.232 470.824 216.773 472.065 215.84 473.393C213.73 476.768 214.446 481.214 215.529 484.587C215.569 484.731 215.65 484.82 215.69 484.963C214.476 485.684 213.946 487.561 214.185 489.01C214.376 489.966 214.789 490.865 215.39 491.633C215.851 492.238 216.445 492.729 217.125 493.068C217.08 493.433 217.122 493.803 217.248 494.148C217.373 494.494 217.579 494.804 217.848 495.055C218.937 496.265 220.712 497.056 221.678 498.033C222.23 498.744 222.728 499.495 223.167 500.281C221.386 501.653 220.168 503.948 221.051 506.41C222.453 510.929 226.567 513.827 230.649 513.337C232.67 513.118 234.694 511.425 236.23 511.161C236.875 511.09 237.521 511.512 237.965 512.202C238.207 512.569 238.328 512.901 238.489 513.178C234.801 517.854 231.233 522.763 228.512 528.317C227.537 530.193 226.643 532.158 225.749 534.122C223.807 535.315 222.03 535.114 220.579 533.698C219.129 531.986 219.661 529.126 219.385 526.452C219.23 525.243 218.775 524.091 218.061 523.103C217.294 522.449 216.164 522.079 215.193 522.578C214.998 521.753 214.548 521.011 213.906 520.456C212.615 519.415 210.837 519.706 210.106 521.26C209.218 520.274 208.21 519.547 206.918 519.491C204.899 519.217 203.279 520.769 203.112 522.95C202.107 522.903 201.114 523.183 200.282 523.747C197.651 525.556 196.346 530.22 198.279 532.862L198.359 532.952C196.699 534.459 195.844 537.256 198.509 537.754C199.589 537.891 200.687 537.756 201.702 537.36C201.265 538.406 201.069 539.537 201.128 540.669C201.127 541.224 201.308 541.764 201.642 542.207C201.976 542.65 202.446 542.971 202.98 543.123C203.746 543.284 204.596 543.047 205.364 542.816C205.533 542.747 205.695 542.664 205.849 542.567C205.841 545.714 208.505 546.705 211.578 544.799C211.853 544.615 212.111 544.406 212.348 544.175C212.936 544.323 213.547 544.348 214.145 544.25C214.743 544.151 215.314 543.931 215.824 543.603C216.593 543.078 217.12 542.086 217.567 541.202C218.583 539.077 218.469 536.188 220.286 536.434C221.108 536.439 221.914 536.657 222.627 537.066C223.151 537.255 223.635 537.891 224.2 537.633C223.875 538.455 223.509 539.331 223.224 540.197C223.125 540.248 223.041 540.325 222.982 540.42C222.288 543.101 219.821 544.006 217.958 546.076C216.827 547.319 215.97 548.785 215.441 550.38C215.35 550.626 215.283 550.88 215.24 551.139C213.862 552.665 212.362 554.842 213.165 556.624C213.341 556.949 213.573 557.24 213.851 557.484C213.511 558.793 213.412 560.153 213.558 561.498C213.635 563.161 213.872 564.906 214.597 565.909C212.778 566.449 211.375 562.029 208.385 562.057C208 562 207.607 562.031 207.236 562.148C206.865 562.265 206.525 562.464 206.242 562.731C203.539 561.991 201.463 567.279 203.597 570.146C204.079 570.672 204.714 571.033 205.412 571.179C205.353 571.555 205.394 571.941 205.531 572.297C206.298 573.346 207.629 573.053 208.722 572.493C209.366 573.603 210.861 573.687 211.912 573.082C212.884 572.387 213.493 571.092 214.264 570.074C214.546 569.602 215.276 569.031 215.398 569.066L216.245 568.826C215.584 573.477 215.324 578.175 215.469 582.87C215.695 589.138 216.811 595.212 218.251 601.055C219.689 607.29 222.098 613.127 225.48 617.972C226.446 619.344 227.493 620.705 228.54 621.967C228.632 622.111 228.77 622.218 228.932 622.272C229.093 622.327 229.268 622.324 229.428 622.264C230.963 622.395 230.967 621.608 230.241 620.998ZM261.096 483.593C261.195 481.061 262.06 478.618 263.579 476.589C263.768 476.315 263.985 476.06 264.227 475.831C263.937 478.566 263.809 481.284 263.641 483.957C263.557 485.046 263.514 486.183 263.43 487.274C263.107 487.604 262.742 487.889 262.459 488.165C262.374 488.094 262.317 487.996 262.297 487.888C261.567 486.569 261.156 485.098 261.096 483.593ZM264.829 493.465C264.015 492.899 263.329 492.169 262.814 491.323C262.632 491.023 262.471 490.712 262.33 490.391C262.451 490.428 262.653 490.357 262.774 490.391C263.46 490.268 263.702 490.242 264.431 490.163C265.865 489.984 267.313 489.943 268.754 490.04C271.016 490.189 274.488 491.19 277.962 491.798L277.236 491.877C274.567 492.46 271.574 493.865 269.27 494.065C267.493 494.062 266.2 494.202 264.829 493.465Z" fill="#317299"/>
<path d="M243.558 589.443C241.361 589.525 239.161 589.45 236.975 589.219C229.997 588.618 223.787 586.687 216.791 583.442C203.882 577.855 192.339 569.533 182.958 559.051C183.997 559.626 184.911 560.29 185.97 560.944C187.351 561.979 188.757 561.97 190.184 562.04C191.319 562.129 192.545 562.853 193.899 562.928C195.963 562.877 197.223 560.873 196.598 558.749C198.217 557.845 199.206 555.939 198.925 553.712C198.602 551.889 197.567 550.19 196.408 548.58C196.086 548.2 195.766 547.819 195.466 547.518C196.717 547.198 197.867 546.484 197.75 544.888C197.691 542.087 195.193 539.599 192.762 538.231C191.787 537.671 190.751 537.225 189.674 536.903L189.726 536.82C190.414 534.612 187.423 532.797 185.549 532.435C183.978 532.011 182.355 531.817 180.728 531.858C180.544 531.459 180.225 531.139 179.826 530.953C177.594 529.491 174.924 530.061 173.199 531.132C171.005 532.393 169.158 534.995 167.197 535.44C166.317 535.556 165.421 535.448 164.594 535.124C164.45 535.112 164.311 535.066 164.189 534.989C163.923 534.51 163.63 534.047 163.31 533.602C158.785 525.872 155.007 518.736 152.431 510.804C153.152 511.218 153.843 511.684 154.498 512.196C156.2 513.612 158.003 515.421 160.099 515.208C162.745 515.121 164.487 512.686 163.001 509.814C162.207 508.181 160.692 506.914 159.951 505.198C159.722 504.691 159.537 504.167 159.396 503.63C161.039 504.247 162.758 506.303 163.915 507.912C167.103 512.2 167.358 517.475 170.532 522.003C172.025 523.752 173.599 523.251 174.241 522.008C175.464 523.294 176.614 524.584 178.1 525.451C182.049 527.526 185.723 526.252 186.959 522.727C188.226 523.608 189.492 524.49 190.855 524.885C193.861 525.897 197.345 525.035 198.215 522.094C198.486 520.904 198.446 519.664 198.097 518.494C201.905 519.456 206.558 522.529 209.51 519.616C210.566 518.828 211.021 517.437 210.779 515.928C211.508 515.594 212.196 515.174 212.827 514.678C213.876 513.569 214.195 511.946 214.131 510.267C213.752 504.519 208.199 500.542 203.363 498.764C203.269 498.689 203.196 498.694 203.103 498.62C203.135 498.459 203.26 498.369 203.293 498.207C204.54 492.437 196.827 491.001 193.156 491.714L192.645 491.747C192.363 487.516 187.429 486.786 183.695 487.824C183.006 488.026 182.276 488.074 181.587 488.278C181.498 487.242 181.088 486.259 180.414 485.467C178.788 483.485 176.235 483.647 174.574 484.394C173.591 484.906 172.654 485.501 171.773 486.174C171.607 485.751 171.321 485.387 170.95 485.125C170.579 484.864 170.14 484.717 169.686 484.703C167.749 484.665 166.252 486.042 165.307 487.545C165.012 488.125 164.791 488.7 164.516 489.359C163.454 489.266 162.29 490.782 161.786 491.696C160.315 494.033 159.794 496.311 157.704 497.405C155.793 498.328 153.639 497.743 151.319 497.088C150.384 496.779 149.471 496.408 148.585 495.978C147.004 489.024 145.83 482.205 144.853 475.293C146.39 475.991 147.823 476.899 149.111 477.989C151.841 480.221 156.495 485.298 158.824 481.701C159.117 481.068 159.242 480.37 159.187 479.674C161.017 480.441 162.972 481.118 164.796 481.002C168.067 481.036 171.534 477.53 169.02 473.841C168.229 472.809 167.228 471.956 166.084 471.337C164.939 470.719 163.677 470.35 162.38 470.253C160.329 470.063 156.97 470.837 156.687 469.171C156.606 468.855 156.961 468.512 157.547 467.914C157.892 467.654 158.214 467.366 158.51 467.052C161.015 468.143 163.691 468.787 166.418 468.956C171.595 469.189 176.546 468.555 181.56 468.158C184.458 467.894 188.876 467.775 188.656 463.781C188.564 462.991 188.217 462.253 187.667 461.679C189.587 461.077 191.581 460.469 192.796 458.87C194.672 456.666 192.354 453.446 189.915 451.757C189.775 451.678 189.649 451.578 189.541 451.46C191.452 450.538 193.022 449.156 192.16 446.405C189.967 441.093 182.207 436.614 177.594 438.269C177.25 438.37 176.926 438.551 176.582 438.653C176.449 438.193 176.213 437.769 175.89 437.415C174.17 435.359 171.389 435.214 169.51 435.975C168.393 436.527 167.69 437.533 166.893 438.465C166.517 438.241 166.075 438.155 165.642 438.223C163.932 438.491 162.76 439.688 161.546 440.725C162.733 438.726 163.223 436.609 162.598 434.486C162.32 433.724 161.91 433.017 161.387 432.397C162.668 430.473 163.814 428.316 163.743 425.755C163.913 423.26 162.28 420.397 159.887 419.747C160.346 418.537 160.516 417.236 160.386 415.948C159.713 410.78 155.443 408.325 151.008 409.808C150.142 410.085 149.322 410.488 148.574 411.004C148.865 406.978 149.159 402.39 145.677 398.683C144.143 396.776 141.815 395.801 139.834 396.167C135.682 397.312 133.64 401.449 132.255 405.544C131.801 404.549 131.141 403.662 130.318 402.941C127.715 400.621 123.854 401.747 122.623 404.152C121.861 405.526 121.445 407.066 121.413 408.637L121.433 408.718C118.445 406.342 117.015 408.839 117.194 412.672C117.145 416.203 118.252 419.9 119.829 423.408C118.121 423.115 117.375 424.525 117.74 426.506L117.842 426.9C116.601 424.974 114.941 423.717 112.747 424.978C112.467 425.134 112.219 425.34 112.014 425.586C110.683 423.025 109.112 420.399 106.556 419.117C103.946 417.92 102.185 420.276 102.214 422.679C102.231 422.717 102.238 422.759 102.236 422.801C102.234 422.843 102.223 422.884 102.202 422.921C101.021 421.793 99.9429 420.5 98.487 420.03C95.2417 418.953 92.3446 421.221 92.713 424.644C92.7485 425.019 92.82 425.391 92.9264 425.753C89.4967 427.972 91.8543 433.917 94.7236 437.262C93.3376 437.35 92.1997 437.823 92.0044 439.358C91.6231 442.747 94.2939 446.187 96.9178 448.586C97.5246 449.163 98.1809 449.684 98.8792 450.145C98.6881 450.643 98.6257 451.18 98.6977 451.708C98.7697 452.236 98.9739 452.737 99.2912 453.165C103.267 458.204 110.277 458.642 114.99 459.947C116.332 460.334 117.645 460.813 118.921 461.382C117.57 461.735 116.368 462.513 115.491 463.601C115.056 464.168 114.83 464.869 114.853 465.584C114.876 466.298 115.147 466.983 115.618 467.521C116.252 468.123 117.052 468.519 117.915 468.658C119.021 469.007 120.17 469.204 121.329 469.243C122.736 469.235 124.163 469.305 125.622 469.212C125.479 469.544 125.42 469.906 125.45 470.266C125.897 472.562 128.885 472.934 130.592 473.226C131.496 473.29 132.403 473.232 133.292 473.056C134.681 474.411 139.257 474.041 140.456 473.805C141.119 473.702 141.774 473.554 142.417 473.361C143.259 480.041 144.394 486.703 145.745 493.35C145.865 493.765 145.95 494.188 146 494.617C145.568 494.794 145.152 495.008 144.756 495.256C144.169 495.597 143.536 495.853 142.877 496.017C140.416 496.814 137.167 496.299 135.64 493.268C134.927 491.951 134.585 489.487 133.625 487.785C133.327 487.344 132.936 486.972 132.481 486.697C132.025 486.421 131.516 486.248 130.987 486.188C129.944 484.171 129.937 481.285 128.53 479.288C128.243 478.928 127.862 478.654 127.429 478.497C126.996 478.341 126.527 478.307 126.076 478.4C125.746 477.7 125.396 476.92 125.068 476.222C123.853 473.252 120.525 469.856 118.603 473.023C118.498 473.191 118.466 473.353 118.361 473.52C115.012 470.044 111.303 464.027 106.973 467.346C106.686 467.617 106.442 467.93 106.249 468.274C104.842 466.279 103.447 464.043 101.17 462.985C97.7002 461.04 95.4003 464.472 95.303 467.524C95.2713 468.193 95.3205 468.862 95.4495 469.519C92.3325 467.792 88.9616 466.804 87.1148 469.405C84.0054 474.57 87.9525 481.216 92.6076 485.731C92.815 485.958 93.0019 486.107 93.2093 486.334C93.0672 486.421 92.9458 486.538 92.8534 486.677C91.6074 487.878 91.6897 490.198 92.2534 492.086C93.8767 496.632 98.6456 499.297 102.67 500.805C102.837 500.875 102.982 500.866 103.149 500.935C102.922 502.633 104.308 504.549 105.867 505.414C106.921 505.951 108.086 506.234 109.269 506.241C110.191 506.258 111.105 506.063 111.94 505.671C112.582 506.432 113.571 506.53 114.374 506.478C116.343 506.353 118.432 505.26 120.09 505.074C121.182 505.084 122.271 505.176 123.35 505.349C123.315 508.077 124.582 510.962 127.586 511.975C132.942 514.04 138.795 512.307 141.4 508.054C142.713 505.967 142.625 502.766 143.529 501.106C143.949 500.438 144.836 500.141 145.825 500.239C146.356 500.286 146.762 500.42 147.147 500.476C148.821 507.504 150.807 514.593 154.045 521.362C155.096 523.702 156.293 526.029 157.49 528.358C157.164 531.104 155.634 532.644 153.195 532.958C150.476 533.05 148.155 530.391 145.403 528.641C144.136 527.879 142.698 527.446 141.221 527.382C140.021 527.619 138.819 528.416 138.563 529.715C137.63 529.28 136.585 529.15 135.574 529.343C133.614 529.787 132.552 531.698 133.48 533.563C131.875 533.665 130.425 534.077 129.398 535.265C127.618 536.981 127.876 539.69 129.826 541.49C129.025 542.411 128.543 543.566 128.454 544.784C128.195 548.647 131.651 553.399 135.62 553.548L135.766 553.539C135.95 556.253 137.968 559.171 140.447 557.009C141.39 556.084 142.087 554.938 142.474 553.675C143.141 554.876 144.068 555.913 145.189 556.709C145.716 557.127 146.366 557.362 147.039 557.377C147.712 557.392 148.372 557.188 148.918 556.794C149.65 556.188 150.062 555.198 150.42 554.294C150.482 554.082 150.525 553.864 150.549 553.644C153.537 556.021 156.485 554.231 156.985 549.87C157.017 549.47 157.012 549.068 156.971 548.669C157.553 548.221 158.038 547.658 158.394 547.015C158.75 546.372 158.971 545.662 159.041 544.931C159.12 543.803 158.574 542.555 158.069 541.465C156.811 538.9 153.977 536.835 155.578 535.292C156.201 534.513 157.016 533.909 157.942 533.539C158.517 533.182 159.485 533.201 159.666 532.467C160.203 533.396 160.761 534.402 161.371 535.325C161.344 535.459 161.354 535.597 161.4 535.725C163.429 538.402 162.435 541.43 163.001 544.763C163.334 546.774 164.084 548.692 165.203 550.395C165.368 550.669 165.558 550.925 165.772 551.162C166.187 553.621 167.13 556.687 169.43 557.263C169.872 557.341 170.323 557.339 170.764 557.259C171.754 558.567 172.973 559.685 174.363 560.558C176.003 561.737 177.842 562.823 179.342 562.888C178.487 565.027 173.225 563.035 171.002 565.901C170.658 566.224 170.392 566.622 170.224 567.063C170.056 567.504 169.99 567.977 170.031 568.448C167.291 570.465 170.762 576.417 175.096 576.544C175.959 576.481 176.781 576.149 177.445 575.594C177.758 575.933 178.156 576.184 178.598 576.32C180.171 576.381 180.897 574.892 181.186 573.431C182.727 573.654 183.931 572.295 184.147 570.839C184.217 569.391 183.443 567.837 183.055 566.338C182.818 565.712 182.823 564.59 182.949 564.502L183.36 563.514C187.292 567.639 191.571 571.417 196.151 574.808C202.286 579.31 208.905 582.819 215.548 585.845C222.564 589.169 229.93 591.268 237.085 591.696C239.116 591.807 241.201 591.836 243.19 591.79C243.396 591.811 243.603 591.761 243.776 591.648C243.949 591.534 244.078 591.365 244.142 591.169C245.432 589.806 244.685 589.212 243.558 589.443ZM136.031 456.692C133.695 454.693 132.022 452.031 131.234 449.06C131.116 448.673 131.038 448.275 131.001 447.872C133.385 450.206 135.875 452.373 138.292 454.545C139.267 455.445 140.314 456.341 141.29 457.241C141.359 457.797 141.357 458.359 141.407 458.836C141.276 458.863 141.139 458.844 141.021 458.781C139.217 458.483 137.508 457.767 136.031 456.691V456.692ZM148.233 460.569C147.082 460.918 145.871 461.021 144.678 460.874C144.257 460.821 143.84 460.74 143.429 460.632C143.555 460.544 143.639 460.298 143.765 460.21C144.164 459.463 144.322 459.213 144.794 458.462C145.703 456.963 146.753 455.554 147.93 454.255C149.774 452.215 153.34 449.664 156.532 446.817C156.374 447.067 156.216 447.318 156.059 447.568C154.606 450.546 153.691 454.452 152.148 456.793C150.806 458.481 149.966 459.817 148.233 460.568V460.569Z" fill="#4393C3"/>
<path d="M213.89 572.417C215.262 570.635 216.723 569.303 218.132 567.309C218.173 567.252 218.213 567.143 218.256 567.086C222.075 564.61 226.609 561.779 230.372 558.486C236.309 553.25 241.418 546.684 246.013 539.777C251.898 531.355 256.363 521.736 259.505 511.576C260.705 507.137 264.661 497.433 261.846 493.953C259.102 492.164 252.058 497.087 249.332 499.002C238.387 507.168 229.462 517.737 223.246 529.895C219.141 538.281 217.861 548.188 219.153 557.179C219.314 559.217 219.567 561.758 219.133 563.722C218.82 564.792 218.35 565.81 217.74 566.744C217.663 566.796 217.593 566.857 217.531 566.926C217.478 567.006 217.45 567.1 217.45 567.195C216.632 568.284 215.743 569.317 214.787 570.287C214.537 570.578 214.289 570.921 214.039 571.212C214.137 569.448 214.236 567.684 214.291 565.874C214.295 558.303 213.495 550.893 212.78 543.472C212.462 539.55 212.1 535.582 211.655 531.677C214.445 528.57 217.367 525.699 219.899 522.316C225.218 515.288 229.866 507.777 233.783 499.881C238.822 489.051 244.964 478.173 246.588 465.954C246.673 463.367 246.899 459.062 244.677 458.025C244.166 457.889 243.619 458.169 243.115 458.444L239.837 460.28C236.81 461.812 234.051 463.822 231.664 466.232C221.945 476.205 214.603 491.469 212.255 506.207C211.304 512.877 211.541 519.591 210.886 526.272V526.323C210.746 525.467 210.604 524.61 210.422 523.811C209.038 516.996 206.937 510.432 205.554 503.616C204.819 500.163 204.125 496.652 203.391 493.199V493.148C203.408 491.6 203.388 490.367 203.748 489.082C204.434 486.929 206.305 484.666 207.709 482.312C210.888 476.986 213.037 470.979 215.531 465.233C219.485 455.529 223.141 445.607 225.09 435.146C225.598 432.635 225.939 430.095 226.111 427.539C226.436 424.045 223.987 424.687 222.101 426.077C218.324 428.674 214.971 431.84 212.161 435.462C209.672 438.891 208.045 443.077 206.457 447.155C204.139 453.238 201.909 459.515 201.039 466.019C200.655 469.764 200.717 473.541 201.223 477.272C201.487 480.48 202.383 483.397 203.153 486.382C203.33 486.822 203.299 487.547 203.516 487.98C203.258 488.548 203.068 489.144 202.951 489.756L202.839 490.698C202.291 488.301 201.744 485.955 201.112 483.62C199.498 478.278 197.511 473.45 195.858 468.319C194.302 463.947 192.452 459.718 190.812 455.41C190.843 455.314 190.883 455.222 190.933 455.135C191.107 454.773 191.3 454.42 191.51 454.078C192.794 452.204 194.38 450.649 195.751 448.867C197.579 446.558 199.494 444.341 201.15 441.85C202.885 439.073 204.453 436.194 205.843 433.23C209.172 426.7 211.217 419.47 212.667 412.167C213.176 409.574 213.389 407.022 213.733 404.709C213.885 403.66 214.037 402.556 214.105 401.517C214.097 401.055 214.087 400.438 213.701 400.233C213.188 399.994 212.733 400.622 212.356 400.982C211.397 401.937 210.436 402.84 209.474 403.692C206.879 405.796 204.067 407.568 201.734 410.151C197.325 414.854 194.18 420.597 192.591 426.844C191.528 431.829 191.822 436.888 191.818 441.832C191.781 444.721 191.786 447.655 191.277 450.248C191.044 451.567 190.684 452.853 190.366 454.183C189.337 451.416 188.456 448.596 187.726 445.736C187.589 445.156 187.495 444.566 187.443 443.972C187.554 443.773 187.623 443.553 187.645 443.326C187.719 442.82 187.839 442.321 188.003 441.836C188.763 439.054 189.693 436.301 190.113 433.464C190.41 430.848 190.073 428.268 189.945 425.71C189.627 421.004 188.984 416.325 188.02 411.707C185.372 400.84 181.897 390.192 177.624 379.855C177.187 379.088 176.534 375.471 175.576 376.477C174.551 378.676 173.999 381.223 173.231 383.542C169.98 394.85 170.475 406.936 173.237 417.633C174.066 420.779 175.079 423.874 176.272 426.902C177.551 429.921 179.249 432.625 180.779 435.404C182.221 438.04 183.79 440.61 185.774 442.656C186.008 442.92 186.268 443.161 186.549 443.374C186.966 446.654 187.715 449.882 188.785 453.009C183.93 446.563 180.935 437.185 174.08 432.915C170.993 430.863 167.497 429.742 163.925 429.146C161.222 428.55 158.437 428.423 155.691 428.772C154.338 429.059 152.895 428.946 151.635 429.736C149.928 431.667 152.265 434.542 153.347 435.837C155.42 438.182 157.951 439.897 160.395 441.574C162.583 443.079 164.686 444.647 166.998 445.928C166.317 451.016 165.554 456.218 166.486 461.345C168.221 471.614 173.507 480.938 181.337 485.177C183.732 486.448 186.408 486.702 189.003 487.173C190.529 487.417 191.976 488.014 193.23 488.916C195.594 490.809 198.041 492.639 200.733 493.87C200.937 493.982 201.151 494.073 201.373 494.143C202.302 498.909 203.142 503.738 204.152 508.494C205.619 515.195 207.465 521.742 208.426 528.666C208.62 530.185 208.815 531.703 208.966 533.176C205.657 525.386 203.23 516.91 198.916 509.875C196.051 505.3 192.788 500.987 189.164 496.987C186.705 494.489 184.157 491.694 180.959 490.585C175.587 488.843 169.714 490.208 164.331 490.374C162.856 490.986 164.084 493.445 164.398 494.484C166.57 500.266 170.331 504.647 174.048 508.879C177.722 513.169 181.19 517.693 185.237 521.468C188.257 524.56 191.895 526.589 195.572 528.406C198.223 529.796 200.711 531.518 203.241 533.182C205.128 534.451 207.151 535.506 209.272 536.327C209.58 539.633 209.846 542.893 210.112 546.204C210.682 552.563 211.201 558.364 211.306 564.787C211.321 568.287 211.165 571.758 210.925 575.241C208.222 573.292 206.928 569.399 205.426 565.741C203.264 560.576 200.556 555.794 197.766 551.127C194.933 546.465 191.771 542.415 188.944 538.062C185.068 531.894 180.984 525.909 176.317 520.621C174.158 518.237 171.623 516.263 168.723 515.268C166.714 514.254 166.53 516.03 166.818 518.05C168.63 527.743 169.223 538.064 172.929 546.883C174.378 550.431 176.093 553.864 178.059 557.154C179.412 559.494 180.808 561.879 182.618 563.744C187.232 568.369 192.923 571.458 198.764 573.341C200.811 574.093 202.975 574.108 205.139 574.122C206.174 574.154 207.21 574.082 208.231 573.908L208.443 573.879C208.867 574.47 209.36 575.008 209.911 575.482C210.204 575.742 210.521 575.975 210.856 576.178C210.33 582.685 209.358 589.149 207.948 595.524C207.537 593.721 206.91 591.973 206.082 590.319C205.147 588.664 203.812 587.269 202.199 586.263C198.478 584.349 194.657 584.096 191.062 582.113C187.942 580.58 185.575 578.431 182.862 575.967C181.14 574.399 179.415 572.676 177.282 571.885C173.699 570.621 169.709 573.018 166.658 575.75C165.53 576.83 164.36 577.916 163.319 579.088C162.366 580.402 163.109 581.794 163.929 582.661C165.654 584.435 167.833 585.375 170.05 586.103C172.659 586.963 175.224 587.955 177.732 589.075C180.726 590.574 183.805 592.163 187.305 590.967C189.331 590.382 191.139 589.261 192.954 588.911C196.807 588.49 200.004 592.124 203.023 595.165C203.952 596.085 205.081 596.777 206.322 597.189C206.728 597.34 207.166 597.386 207.596 597.325C206.489 602.264 205.468 607.244 204.02 612.076C203.859 612.612 203.859 612.51 203.657 613.103V613.206C203.657 613.258 203.657 613.258 203.617 613.315V613.366C203.576 613.577 203.665 613.77 203.836 613.8C204.332 613.822 204.826 613.72 205.273 613.502C205.871 613.781 206.545 610.908 206.709 610.525C207.634 607.464 208.431 604.318 209.228 601.222C210.148 601.189 211.052 600.979 211.892 600.603C212.661 600.181 213.367 599.651 213.986 599.029C214.074 599.223 214.37 599.183 214.623 599.097C215.976 598.81 217.378 598.98 218.903 598.875C220.665 598.721 222.416 598.465 224.149 598.109C228.416 597.117 232.497 595.12 236.444 592.677C243.263 588.78 249.152 583.446 253.704 577.044C255.318 574.61 257.059 572.108 257.773 569.127C257.89 568.493 258.131 567.687 257.742 567.225C257.353 566.763 256.679 567.061 256.168 566.976C255.217 566.997 254.265 566.937 253.324 566.796C249.879 566.183 246.392 565.626 242.803 566.579C235.453 568.351 225.714 577.091 221.687 585.054C219.791 588.504 218.586 592.478 216.47 595.393C215.315 596.878 213.984 598.218 212.506 599.383C211.645 599.968 210.637 600.302 209.596 600.345L209.511 600.356C209.83 599.077 210.147 597.747 210.466 596.467C212.146 588.537 213.291 580.502 213.89 572.417ZM195.875 489.844C195.828 489.788 195.769 489.744 195.703 489.713C195.738 489.244 195.347 488.679 195.34 488.166C194.914 485.494 194.531 482.766 193.558 480.323C191.606 475.077 188.943 470.445 186.364 465.697C183.912 461.035 180.96 456.802 178.216 452.386L176.908 450.247C177.89 450.629 178.83 451.014 179.811 451.397C182.716 452.599 185.581 454.012 188.684 454.568C188.77 454.609 188.854 454.596 188.94 454.636C189.025 454.676 189.069 454.773 189.155 454.813L189.239 454.802C190.175 457.558 191.237 460.246 192.171 462.953C193.59 466.725 194.621 470.087 195.786 473.945C197.037 477.895 198.281 481.279 199.281 485.364C199.872 487.807 200.379 490.313 200.843 492.774C199.101 491.951 197.438 490.97 195.875 489.844Z" fill="#98C4DE"/>
<path d="M229.228 576.99C230.409 576.927 231.458 577.122 232.733 576.982C232.769 576.979 232.825 576.951 232.862 576.948C235.228 577.921 237.997 579.127 240.645 579.691C244.839 580.563 249.212 580.362 253.517 579.719C258.874 579.09 264.138 577.122 269.101 574.171C271.204 572.786 276.306 570.496 276.532 567.329C276.158 564.982 271.661 563.352 269.917 562.726C262.994 560.434 255.526 560.368 248.563 562.537C243.894 564.135 239.73 568.002 236.88 572.871C236.184 573.901 235.337 575.215 234.443 575.882C233.94 576.198 233.379 576.41 232.793 576.505C232.746 576.487 232.696 576.476 232.646 576.474C232.594 576.483 232.547 576.512 232.516 576.555C231.797 576.604 231.075 576.588 230.359 576.506C230.157 576.503 229.934 576.523 229.731 576.519C230.424 575.759 231.116 574.998 231.809 574.193C234.622 570.698 237.071 566.833 239.557 563.008C240.892 561.02 242.229 558.987 243.511 556.937C245.723 557.048 247.895 557.34 250.11 557.183C254.737 556.884 259.305 555.987 263.701 554.515C269.633 552.306 275.998 550.685 281.151 545.941C282.144 544.794 283.829 542.931 283.371 541.22C283.212 540.913 282.946 540.673 282.623 540.548L280.7 539.579C279.068 538.638 277.263 538.032 275.394 537.799C268.01 537.019 259.559 540 253.197 545.506C250.359 548.059 247.956 551.292 245.227 554.015L245.208 554.039C245.472 553.565 245.737 553.091 245.964 552.621C247.971 548.707 249.613 544.511 251.62 540.597C252.624 538.594 253.665 536.588 254.669 534.585L254.688 534.56C255.147 533.919 255.702 533.352 256.333 532.881C257.393 532.266 258.942 532.258 260.348 531.949C263.529 531.251 266.575 529.668 269.654 528.395C274.756 526.105 279.825 523.548 284.448 519.797C285.594 518.899 286.667 517.913 287.66 516.849C289.081 515.415 287.914 514.354 286.684 513.951C284.372 513.071 281.905 512.671 279.433 512.777C277.217 512.981 275.046 514.012 272.93 515.016C269.793 516.541 266.617 518.204 263.872 520.727C262.283 522.312 260.902 524.092 259.763 526.026C258.673 527.654 257.928 529.498 257.111 531.304C257.015 531.605 256.734 531.923 256.655 532.244C256.34 532.368 256.045 532.539 255.782 532.752L255.39 533.125C256.072 531.713 256.737 530.327 257.364 528.898C258.736 525.537 259.777 522.205 261.056 518.919C262.09 516.037 262.96 513.059 263.939 510.16C263.985 510.133 264.035 510.113 264.087 510.101C264.287 510.03 264.491 509.974 264.698 509.933C265.881 509.779 267.059 509.94 268.24 509.876C269.794 509.883 271.347 509.8 272.891 509.627C274.586 509.305 276.251 508.843 277.87 508.247C281.556 507.077 285.016 504.87 288.277 502.3C289.433 501.384 290.461 500.323 291.451 499.446C291.899 499.045 292.365 498.62 292.777 498.178C292.886 498.073 292.971 497.945 293.027 497.805C293.083 497.664 293.108 497.513 293.1 497.361C292.994 496.967 292.588 497.004 292.312 496.962C291.594 496.871 290.895 496.756 290.214 496.616C288.449 496.15 286.725 495.41 284.883 495.31C281.453 495.042 278.037 495.977 275.22 497.953C272.966 499.666 271.199 502.166 269.361 504.449C268.274 505.763 267.186 507.121 266.031 508.037C265.453 508.517 264.839 508.91 264.224 509.349C264.837 507.675 265.527 505.724 266.363 503.982C266.522 503.646 266.706 503.321 266.911 503.01C267.031 502.978 267.14 502.913 267.227 502.824C267.437 502.635 267.668 502.471 267.915 502.334C269.237 501.471 270.611 500.715 271.825 499.637C272.908 498.593 273.738 497.213 274.64 495.962C276.301 493.556 277.795 491.038 279.111 488.427C282.201 481.788 284.837 474.946 287 467.949C287.118 467.355 288.216 465.321 287.478 465.254C286.274 465.702 285.119 466.573 283.968 467.218C278.537 470.64 274.236 476.496 271.31 482.967C270.443 484.914 269.677 486.904 269.017 488.93C268.381 491.034 268.02 493.224 267.567 495.356C267.091 497.362 266.822 499.412 266.766 501.473C266.757 501.727 266.766 501.982 266.793 502.235C265.705 504.04 264.79 505.945 264.062 507.924C264.616 502.256 266.965 496.265 265.953 490.493C265.53 487.923 264.704 485.436 263.506 483.124C262.742 481.412 261.739 479.817 260.526 478.388C259.907 477.771 259.402 476.919 258.632 476.585C257.268 476.531 257.086 479.155 257.014 480.352C256.997 482.549 257.177 484.743 257.554 486.908C257.824 488.816 258.038 490.706 258.438 492.579C256.291 494.552 254.07 496.533 252.519 499.416C249.363 505.121 247.902 512.357 249.294 518.654C249.729 520.569 250.649 522.17 251.457 523.825C251.953 524.812 252.275 525.877 252.411 526.973C252.554 529.147 252.889 531.304 253.413 533.419C253.448 533.583 253.495 533.743 253.555 533.9C252.135 536.615 250.661 539.312 249.277 542.068C247.344 545.977 245.612 550.023 243.404 553.755C242.914 554.564 242.424 555.373 241.935 556.135C243.574 550.704 245.802 545.442 246.781 539.803C247.4 536.046 247.765 532.252 247.872 528.445C247.869 525.929 247.942 523.226 247.142 520.94C245.754 517.159 243.022 514.534 240.922 511.627C240.136 511.093 239.687 512.909 239.42 513.564C238.096 517.437 237.894 521.546 237.73 525.561C237.528 529.579 237.162 533.59 237.294 537.577C237.289 540.678 237.914 543.629 238.632 546.509C239.121 548.621 239.424 550.795 239.762 552.965C240.004 554.591 240.378 556.195 240.879 557.76C239.768 559.458 238.659 561.109 237.529 562.788C235.384 566.041 233.426 569.008 231.081 572.033C229.787 573.657 228.439 575.175 227.054 576.65C226.754 574.251 227.71 571.736 228.499 569.215C229.554 565.602 230.397 561.93 231.025 558.219C231.683 554.496 231.989 550.873 232.535 547.295C233.41 542.317 233.976 537.289 234.229 532.241C234.342 529.979 234.041 527.715 233.342 525.56C232.957 523.978 232.228 524.696 231.586 525.789C228.673 531.271 225.065 536.366 223.194 542.494C222.413 544.981 221.788 547.515 221.322 550.08C220.908 551.91 220.667 553.775 220.602 555.651C220.677 560.225 221.54 564.752 223.154 569.032C223.678 570.422 224.393 571.733 225.278 572.926C225.648 573.499 226.066 574.039 226.529 574.54L226.62 574.644C226.561 575.16 226.547 575.68 226.58 576.198C226.594 576.481 226.628 576.763 226.679 577.042C224.122 579.706 221.35 582.156 218.393 584.367C218.921 583.267 219.332 582.115 219.619 580.929C219.88 579.601 219.892 578.236 219.654 576.904C218.956 573.958 217.602 571.722 216.977 568.814C216.364 566.377 216.265 564.071 216.153 561.43C216.083 559.752 216.069 558.001 215.555 556.452C214.668 553.883 212.266 552.778 210.096 552.349C209.267 552.202 208.431 552.099 207.591 552.041C206.742 552.119 206.506 553.174 206.495 554.029C206.543 555.739 206.895 557.426 207.535 559.011C208.193 560.861 208.814 562.713 209.342 564.642C209.919 566.993 210.495 569.434 212.266 570.821C213.251 571.674 214.35 572.157 215.169 573.003C216.783 574.944 216.647 578.394 216.662 581.471C216.673 582.413 216.841 583.347 217.16 584.234C217.251 584.517 217.398 584.778 217.593 585.003C215.339 586.671 213.102 588.405 210.76 589.834C210.499 589.993 210.537 589.945 210.24 590.107L210.202 590.155C210.184 590.179 210.184 590.179 210.146 590.183L210.128 590.207C210.081 590.245 210.048 590.297 210.033 590.355C210.019 590.414 210.025 590.475 210.05 590.53C210.213 590.798 210.437 591.024 210.705 591.189C210.828 591.649 212.15 590.696 212.354 590.61C213.841 589.709 215.312 588.697 216.763 587.709C217.099 588.179 217.519 588.582 218.002 588.899C218.431 589.125 218.898 589.272 219.379 589.333C219.339 589.471 219.468 589.616 219.596 589.718C220.214 590.335 220.683 591.19 221.299 591.987C222.01 592.878 222.769 593.731 223.57 594.542C228.804 599.147 235.626 601.533 242.589 601.193C244.104 600.963 245.693 600.772 247.071 599.791C247.35 599.563 247.741 599.325 247.765 598.896C247.788 598.466 247.423 598.231 247.262 597.909C246.887 597.38 246.55 596.825 246.253 596.249C245.175 594.056 244.061 591.868 242.348 590.318C238.905 587.062 231.971 585.702 227.488 587.148C225.489 587.692 223.556 588.859 221.672 589.032C220.665 589.076 219.658 588.956 218.689 588.678C218.1 588.436 217.593 588.03 217.229 587.508L217.193 587.467C217.789 587.053 218.404 586.614 218.999 586.2C222.649 583.408 226.069 580.328 229.228 576.99ZM253.067 528.867C253.07 528.815 253.064 528.762 253.051 528.712C253.238 528.515 253.3 528.037 253.487 527.795C254.388 526.339 255.138 524.794 255.725 523.185C256.933 519.681 257.645 516.065 258.431 512.443C259.234 508.932 259.687 505.339 260.287 501.778L260.587 500.066C260.817 500.786 261.031 501.485 261.259 502.204C261.913 504.369 262.473 506.609 263.443 508.587C263.46 508.652 263.497 508.694 263.514 508.76C263.531 508.826 263.514 508.895 263.53 508.962L263.566 509.002C262.897 510.793 262.301 512.624 261.65 514.391C260.787 516.92 259.929 519.044 258.937 521.472C257.945 523.99 257.159 526.242 256.019 528.684C255.336 530.14 254.598 531.579 253.86 532.972C253.505 531.623 253.24 530.252 253.067 528.867Z" fill="#4292C2"/>
<path fill-rule="evenodd" clip-rule="evenodd" d="M176.197 594.891H256.813C256.813 594.891 251.269 605.494 245.998 615.579C243.181 620.965 238.943 625.477 233.745 628.625C228.546 631.773 222.584 633.438 216.506 633.439C210.428 633.438 204.467 631.773 199.268 628.625C194.069 625.476 189.831 620.965 187.015 615.579C181.741 605.492 176.197 594.891 176.197 594.891Z" fill="#B2D9F0"/>
<mask id="mask0_25_330" style="mask-type:luminance" maskUnits="userSpaceOnUse" x="176" y="594" width="81" height="40">
<path d="M176.197 594.891H256.813C256.813 594.891 251.269 605.494 245.998 615.579C243.181 620.965 238.943 625.477 233.745 628.625C228.546 631.773 222.584 633.438 216.506 633.439C210.428 633.438 204.467 631.773 199.268 628.625C194.069 625.476 189.831 620.965 187.015 615.579C181.741 605.492 176.197 594.891 176.197 594.891Z" fill="white"/>
</mask>
<g mask="url(#mask0_25_330)">
<path fill-rule="evenodd" clip-rule="evenodd" d="M247.894 594.889C234.363 594.386 186.934 592.592 175.613 594.889C170.886 595.851 179.962 608.689 179.962 608.689C179.962 608.689 245.486 600.206 256.807 597.906C259.88 597.283 251.03 595.007 247.894 594.889Z" fill="black" fill-opacity="0.2"/>
</g>
<path fill-rule="evenodd" clip-rule="evenodd" d="M260.042 586.077H172.967V586.089C172.967 587.641 173.272 589.177 173.866 590.611C174.46 592.045 175.33 593.347 176.428 594.445C177.525 595.542 178.828 596.412 180.261 597.006C181.695 597.6 183.232 597.905 184.783 597.905H248.226C249.777 597.905 251.314 597.6 252.748 597.006C254.181 596.412 255.484 595.542 256.581 594.445C257.679 593.347 258.549 592.045 259.143 590.611C259.737 589.177 260.042 587.641 260.042 586.089V586.077Z" fill="#1A4583"/>
<path fill-rule="evenodd" clip-rule="evenodd" d="M620.108 191.647C620.107 186.063 617.889 180.709 613.941 176.761C609.993 172.813 604.638 170.595 599.055 170.595H490.628C485.045 170.595 479.69 172.813 475.742 176.761C471.794 180.709 469.576 186.063 469.575 191.647V191.66C469.576 197.243 471.794 202.598 475.742 206.545C479.69 210.493 485.045 212.711 490.628 212.711H599.055C604.638 212.711 609.993 210.493 613.941 206.545C617.889 202.598 620.107 197.243 620.108 191.66V191.647Z" fill="#73B9E3"/>
<path fill-rule="evenodd" clip-rule="evenodd" d="M553.937 199.861C553.683 200.193 553.067 200.027 552.227 199.402C551.183 198.567 550.252 197.6 549.457 196.525L544.324 189.839C543.451 188.724 542.71 187.513 542.115 186.229C541.635 185.135 541.51 184.333 541.763 184.002C542.017 183.671 542.632 183.836 543.472 184.461C544.516 185.296 545.448 186.263 546.243 187.338L551.376 194.025C552.249 195.139 552.99 196.35 553.585 197.634C554.065 198.728 554.19 199.53 553.937 199.861Z" fill="black"/>
<path fill-rule="evenodd" clip-rule="evenodd" d="M553.636 183.956C553.891 184.287 553.764 185.089 553.284 186.183C552.688 187.467 551.947 188.678 551.075 189.792L545.942 196.479C545.147 197.554 544.215 198.521 543.171 199.356C542.331 199.981 541.716 200.146 541.461 199.814C541.206 199.483 541.333 198.682 541.813 197.587C542.409 196.304 543.15 195.092 544.022 193.978L549.155 187.292C549.951 186.217 550.882 185.25 551.926 184.415C552.766 183.79 553.382 183.624 553.636 183.956Z" fill="black"/>
<path fill-rule="evenodd" clip-rule="evenodd" d="M556.357 191.562C556.357 192.03 555.832 192.48 554.898 192.812C553.76 193.175 552.571 193.35 551.377 193.33H544.12C542.926 193.35 541.736 193.175 540.598 192.812C539.665 192.481 539.141 192.031 539.141 191.562C539.141 191.093 539.665 190.643 540.598 190.311C541.736 189.948 542.926 189.774 544.12 189.793H551.379C552.573 189.774 553.762 189.948 554.9 190.311C555.833 190.642 556.359 191.092 556.359 191.562H556.357ZM527.784 199.861C527.529 200.193 526.914 200.027 526.074 199.402C525.03 198.567 524.099 197.6 523.303 196.525L518.17 189.839C517.298 188.724 516.557 187.513 515.961 186.229C515.481 185.135 515.356 184.333 515.609 184.002C515.864 183.671 516.479 183.836 517.319 184.461C518.363 185.296 519.294 186.263 520.09 187.338L525.223 194.025C526.095 195.139 526.836 196.35 527.431 197.634C527.912 198.728 528.037 199.53 527.784 199.861Z" fill="black"/>
<path fill-rule="evenodd" clip-rule="evenodd" d="M527.483 183.956C527.737 184.287 527.61 185.089 527.131 186.183C526.535 187.467 525.794 188.678 524.922 189.792L519.789 196.48C518.993 197.555 518.062 198.522 517.018 199.357C516.178 199.982 515.563 200.147 515.308 199.816C515.053 199.484 515.18 198.683 515.66 197.589C516.256 196.305 516.997 195.094 517.869 193.979L523.002 187.293C523.797 186.218 524.729 185.251 525.773 184.416C526.613 183.791 527.229 183.625 527.483 183.957V183.956Z" fill="black"/>
<path fill-rule="evenodd" clip-rule="evenodd" d="M530.203 191.562C530.203 192.03 529.679 192.48 528.745 192.812C527.607 193.175 526.418 193.35 525.224 193.33H517.965C516.77 193.35 515.581 193.175 514.443 192.812C513.51 192.481 512.985 192.031 512.985 191.562C512.985 191.093 513.51 190.643 514.443 190.311C515.581 189.948 516.77 189.774 517.965 189.793H525.224C526.418 189.774 527.607 189.948 528.745 190.311C529.678 190.642 530.203 191.092 530.203 191.562ZM501.729 199.861C501.474 200.193 500.859 200.027 500.019 199.402C498.975 198.567 498.044 197.6 497.248 196.525L492.115 189.839C491.243 188.725 490.502 187.513 489.906 186.229C489.426 185.135 489.301 184.333 489.554 184.002C489.809 183.671 490.424 183.836 491.264 184.461C492.308 185.296 493.239 186.263 494.035 187.338L499.168 194.025C500.04 195.139 500.781 196.35 501.377 197.634C501.856 198.728 501.982 199.53 501.729 199.861Z" fill="black"/>
<path fill-rule="evenodd" clip-rule="evenodd" d="M501.429 183.956C501.684 184.287 501.557 185.089 501.077 186.183C500.481 187.467 499.74 188.678 498.868 189.792L493.735 196.479C492.94 197.554 492.008 198.521 490.964 199.356C490.124 199.981 489.509 200.146 489.254 199.814C489 199.483 489.126 198.682 489.607 197.587C490.202 196.304 490.943 195.092 491.815 193.978L496.949 187.292C497.744 186.217 498.675 185.25 499.719 184.415C500.559 183.79 501.175 183.624 501.429 183.956Z" fill="black"/>
<path fill-rule="evenodd" clip-rule="evenodd" d="M504.148 191.562C504.148 192.03 503.624 192.48 502.69 192.812C501.552 193.175 500.363 193.35 499.169 193.33H491.909C490.715 193.35 489.526 193.175 488.388 192.812C487.455 192.481 486.93 192.031 486.93 191.562C486.93 191.093 487.455 190.643 488.388 190.311C489.526 189.948 490.715 189.774 491.909 189.793H499.17C500.364 189.774 501.553 189.949 502.691 190.311C503.624 190.642 504.15 191.092 504.15 191.562H504.148ZM603.122 199.863C602.867 200.194 602.252 200.029 601.412 199.403C600.368 198.568 599.436 197.601 598.641 196.527L593.508 189.84C592.636 188.726 591.895 187.515 591.299 186.231C590.819 185.136 590.694 184.334 590.947 184.004C591.201 183.672 591.817 183.837 592.656 184.462C593.701 185.298 594.633 186.265 595.428 187.34L600.561 194.026C601.433 195.14 602.174 196.351 602.769 197.635C603.25 198.729 603.374 199.532 603.122 199.863Z" fill="black"/>
<path fill-rule="evenodd" clip-rule="evenodd" d="M602.82 183.958C603.075 184.29 602.948 185.091 602.468 186.186C601.872 187.47 601.131 188.681 600.259 189.795L595.126 196.481C594.331 197.556 593.399 198.523 592.355 199.358C591.515 199.984 590.9 200.149 590.645 199.817C590.391 199.486 590.517 198.685 590.998 197.59C591.593 196.306 592.334 195.095 593.206 193.981L598.339 187.294C599.135 186.22 600.066 185.253 601.11 184.418C601.95 183.792 602.566 183.627 602.82 183.958Z" fill="black"/>
<path fill-rule="evenodd" clip-rule="evenodd" d="M605.541 191.563C605.541 192.032 605.016 192.482 604.082 192.814C602.944 193.177 601.755 193.352 600.561 193.332H593.302C592.108 193.352 590.918 193.177 589.78 192.814C588.847 192.482 588.322 192.033 588.322 191.563C588.322 191.094 588.847 190.644 589.78 190.312C590.918 189.95 592.108 189.775 593.302 189.794H600.561C601.755 189.775 602.944 189.95 604.082 190.312C605.016 190.644 605.541 191.094 605.541 191.563ZM577.067 199.863C576.813 200.194 576.197 200.029 575.357 199.403C574.313 198.568 573.382 197.601 572.586 196.527L567.453 189.84C566.581 188.726 565.84 187.515 565.244 186.231C564.765 185.136 564.639 184.334 564.892 184.004C565.147 183.672 565.762 183.837 566.602 184.462C567.646 185.298 568.578 186.265 569.373 187.34L574.506 194.026C575.378 195.14 576.119 196.351 576.715 197.635C577.195 198.729 577.322 199.532 577.067 199.863Z" fill="black"/>
<path fill-rule="evenodd" clip-rule="evenodd" d="M576.766 183.958C577.02 184.29 576.893 185.091 576.414 186.186C575.818 187.47 575.077 188.681 574.205 189.795L569.072 196.481C568.276 197.556 567.345 198.523 566.301 199.358C565.46 199.984 564.846 200.149 564.591 199.817C564.336 199.486 564.463 198.685 564.943 197.59C565.538 196.306 566.28 195.095 567.152 193.981L572.285 187.294C573.08 186.22 574.012 185.253 575.056 184.418C575.896 183.792 576.511 183.627 576.766 183.958Z" fill="black"/>
<path fill-rule="evenodd" clip-rule="evenodd" d="M579.486 191.563C579.486 192.032 578.962 192.482 578.028 192.814C576.89 193.177 575.701 193.352 574.507 193.332H567.248C566.053 193.352 564.864 193.177 563.726 192.814C562.793 192.482 562.268 192.033 562.268 191.563C562.268 191.094 562.793 190.644 563.726 190.312C564.864 189.95 566.053 189.775 567.248 189.794H574.507C575.701 189.775 576.89 189.95 578.028 190.312C578.961 190.644 579.486 191.094 579.486 191.563Z" fill="black"/>
<path fill-rule="evenodd" clip-rule="evenodd" d="M387.138 134.149C392.201 134.15 397.1 135.943 400.967 139.212C404.833 142.48 407.417 147.013 408.261 152.005C415.971 197.678 436.434 318.867 445.322 371.502C445.841 374.574 445.684 377.722 444.861 380.726C444.039 383.731 442.571 386.519 440.56 388.898C438.549 391.277 436.043 393.189 433.217 394.5C430.392 395.811 427.314 396.49 424.199 396.49H233.371C228.308 396.489 223.409 394.696 219.543 391.427C215.677 388.158 213.093 383.625 212.251 378.633C204.537 332.96 184.077 211.771 175.187 159.136C174.67 156.064 174.828 152.917 175.651 149.913C176.474 146.909 177.942 144.121 179.952 141.742C181.963 139.364 184.468 137.452 187.293 136.141C190.118 134.829 193.195 134.15 196.31 134.149H387.138Z" fill="#1B3862"/>
<path fill-rule="evenodd" clip-rule="evenodd" d="M249.03 378.658C243.966 378.658 239.067 376.864 235.2 373.595C231.333 370.327 228.75 365.794 227.907 360.801C220.654 317.837 202.207 208.582 193.858 159.136C193.339 156.064 193.496 152.917 194.318 149.913C195.141 146.909 196.608 144.12 198.619 141.741C200.629 139.363 203.135 137.451 205.96 136.14C208.785 134.828 211.862 134.149 214.977 134.149H389.881C394.944 134.148 399.844 135.942 403.711 139.21C407.577 142.479 410.161 147.012 411.004 152.005C418.26 194.97 436.706 304.225 445.053 353.671C445.572 356.742 445.415 359.889 444.592 362.894C443.77 365.898 442.302 368.686 440.292 371.065C438.281 373.444 435.776 375.356 432.951 376.667C430.126 377.978 427.048 378.658 423.934 378.658H249.03Z" fill="#E7E7E7"/>
<path fill-rule="evenodd" clip-rule="evenodd" d="M304.876 171.86C308.464 171.402 312.195 170.917 315.989 170.665C318.432 170.503 320.901 170.406 323.354 170.48C327.375 170.62 331.373 171.142 335.296 172.038C336.183 172.194 337.097 171.994 337.838 171.48C338.578 170.967 339.086 170.181 339.25 169.295C339.415 168.409 339.223 167.493 338.716 166.748C338.208 166.003 337.428 165.488 336.543 165.316C332.302 164.691 327.896 164.582 323.452 164.568C320.877 164.561 318.292 164.561 315.724 164.617C311.818 164.705 307.961 164.841 304.247 165.054C303.799 165.094 303.363 165.222 302.965 165.43C302.566 165.639 302.213 165.924 301.925 166.27C301.637 166.615 301.42 167.014 301.287 167.444C301.153 167.873 301.106 168.325 301.147 168.772C301.188 169.22 301.318 169.656 301.528 170.053C301.738 170.451 302.024 170.803 302.371 171.09C302.717 171.377 303.117 171.593 303.547 171.725C303.977 171.857 304.428 171.902 304.876 171.86ZM304.74 196.329C308.527 196.078 323.574 195.756 338.457 195.655C346.716 195.599 354.92 195.695 361.159 195.537C363.647 195.47 365.83 195.39 367.591 195.264C368.494 195.18 369.326 194.741 369.905 194.043C370.484 193.346 370.762 192.447 370.678 191.545C370.594 190.642 370.155 189.81 369.457 189.231C368.76 188.652 367.861 188.374 366.959 188.458C361.599 189.055 352.153 189.562 342.171 189.73C337.14 189.814 331.98 189.782 327.138 189.74C316.416 189.646 307.245 189.405 304.383 189.503C303.478 189.55 302.629 189.955 302.022 190.628C301.415 191.302 301.101 192.189 301.148 193.094C301.195 193.999 301.6 194.849 302.274 195.456C302.947 196.062 303.834 196.377 304.74 196.329ZM305.046 224.415C317.186 224.167 328.824 223.835 340.238 223.461C348.141 223.206 355.934 222.892 363.712 222.571C376.67 222.032 389.579 221.432 402.855 220.359C403.304 220.32 403.74 220.192 404.14 219.984C404.539 219.775 404.893 219.49 405.182 219.144C405.471 218.799 405.688 218.399 405.822 217.969C405.955 217.539 406.003 217.086 405.961 216.638C405.919 216.189 405.79 215.754 405.579 215.355C405.368 214.957 405.081 214.605 404.733 214.318C404.386 214.031 403.985 213.816 403.554 213.685C403.123 213.554 402.671 213.509 402.222 213.553C389.08 214.93 376.296 216.02 363.443 216.666C355.708 217.054 347.948 217.267 340.08 217.41C328.698 217.62 317.088 217.602 304.983 217.581C304.076 217.59 303.211 217.958 302.576 218.605C301.941 219.251 301.589 220.124 301.597 221.03C301.606 221.936 301.974 222.802 302.621 223.437C303.267 224.071 304.14 224.423 305.046 224.415ZM274.287 318.056C274.238 318.007 274.21 317.927 274.158 317.864C273.966 317.617 273.801 317.35 273.669 317.067C273.209 316.059 272.867 315.002 272.648 313.916C271.971 310.88 271.771 307.599 271.576 306.171L270.412 296.411C269.713 290.028 269.202 283.348 268.04 276.857C267.286 272.364 266.067 267.962 264.403 263.721C261.556 256.691 257.154 254.787 253.059 255.399C249.388 255.947 245.453 259.004 242.533 263.63C241.857 264.704 241.213 265.798 240.601 266.91C239.706 268.532 238.866 270.184 238.033 271.84C236.611 274.67 235.231 277.521 233.977 280.428C233.129 282.398 232.335 284.393 231.622 286.419C231.335 287.273 231.396 288.205 231.793 289.014C232.19 289.822 232.89 290.441 233.741 290.737C234.592 291.032 235.525 290.979 236.337 290.59C237.149 290.201 237.775 289.507 238.078 288.659C238.885 286.3 239.811 283.988 240.807 281.706C241.823 279.383 242.913 277.095 244.031 274.82C244.81 273.238 245.596 271.658 246.435 270.107C246.977 269.101 247.548 268.111 248.147 267.138C249.855 264.381 251.875 262.194 254.051 261.848C255.843 261.566 257.182 263.095 258.453 266.163C259.984 269.979 261.114 273.945 261.825 277.996C263.016 284.337 263.547 290.867 264.277 297.103L265.524 307.022C265.828 309.142 266.237 314.962 267.84 318.826C269.039 321.709 270.964 323.603 273.294 324.015C275.743 324.448 278.252 323.162 280.271 320.521C282.856 317.136 284.837 311.399 285.644 309.526C289.03 301.672 291.727 293.508 294.868 285.546C296.181 282.206 297.582 278.908 299.145 275.676C300.022 273.86 301.126 271.229 302.701 269.241C303.421 268.336 304.211 267.529 305.243 267.33C306.588 267.068 307.692 267.98 308.831 269.042C310.924 270.991 312.845 273.797 314.774 276.169C316.653 278.475 318.589 280.386 320.535 281.329C322.488 282.253 324.643 282.664 326.799 282.524C330.153 282.373 333.659 281.088 337.081 280.078C339.691 279.312 342.227 278.585 344.512 279.638C346.451 280.532 347.635 282.513 348.666 284.697C350.647 288.896 351.856 293.948 353.599 297.229C356.377 302.445 360.262 305.327 364.678 306.749C370.781 308.719 378.076 307.689 384.98 305.897C385.414 305.781 385.82 305.582 386.177 305.31C386.534 305.037 386.833 304.697 387.059 304.309C387.284 303.921 387.431 303.492 387.49 303.047C387.55 302.602 387.521 302.15 387.406 301.716C387.291 301.283 387.091 300.876 386.819 300.519C386.546 300.162 386.206 299.863 385.818 299.637C385.43 299.412 385.001 299.266 384.557 299.206C384.112 299.146 383.66 299.175 383.226 299.29C378.527 300.558 373.611 301.547 369.181 300.949C365.227 300.418 361.722 298.507 359.336 294.137C357.271 290.353 355.906 284.176 353.225 279.736C351.652 277.136 349.672 275.058 347.125 273.908C345.112 273.03 342.903 272.699 340.721 272.948C337.479 273.251 334.038 274.602 330.634 275.585C328.066 276.326 325.522 276.944 323.169 275.83C321.29 274.936 319.602 272.561 317.765 270.226C315.518 267.375 313.17 264.496 310.663 262.903C308.602 261.589 306.415 261.027 304.095 261.491C302.198 261.911 300.474 262.898 299.151 264.321C296.748 266.766 295.05 270.571 293.831 273.117C292.217 276.478 290.773 279.916 289.404 283.389C286.284 291.291 283.566 299.379 280.188 307.163C279.636 308.435 278.525 311.666 277.012 314.507C276.499 315.523 275.871 316.476 275.139 317.347C274.879 317.611 274.593 317.848 274.287 318.056ZM242.355 344.504C250.558 344.427 258.761 344.238 266.964 344.025C283.342 343.595 299.721 342.872 316.099 342.261C332.463 341.65 348.823 341.188 365.171 340.723C365.623 340.711 366.068 340.609 366.48 340.424C366.891 340.238 367.263 339.973 367.571 339.643C367.88 339.314 368.12 338.926 368.278 338.503C368.436 338.08 368.509 337.629 368.492 337.178C368.475 336.726 368.368 336.283 368.179 335.873C367.989 335.463 367.72 335.094 367.387 334.789C367.055 334.484 366.665 334.247 366.24 334.094C365.815 333.94 365.364 333.872 364.913 333.893C350.208 334.596 335.498 335.462 320.767 336.129C310.967 336.577 301.162 336.938 291.352 337.213C275.019 337.667 258.687 337.819 242.356 337.67C241.45 337.67 240.581 338.03 239.94 338.671C239.299 339.312 238.939 340.181 238.939 341.087C238.939 341.993 239.299 342.862 239.94 343.503C240.581 344.144 241.45 344.504 242.356 344.504H242.355ZM244.694 360.884C248.604 360.924 252.517 360.744 256.447 360.561C259.022 360.442 261.6 360.292 264.182 360.215C268.448 360.094 272.707 360.134 276.941 360.18C277.842 360.15 278.693 359.765 279.311 359.109C279.929 358.454 280.263 357.581 280.241 356.68C280.218 355.779 279.841 354.924 279.191 354.301C278.541 353.677 277.671 353.335 276.77 353.35C273.56 353.556 270.354 353.867 267.121 354.094C265 354.241 262.872 354.38 260.745 354.443C255.494 354.584 250.238 354.454 244.999 354.056C244.55 354.033 244.1 354.1 243.677 354.252C243.253 354.404 242.864 354.638 242.531 354.941C242.198 355.244 241.928 355.61 241.737 356.018C241.546 356.425 241.437 356.866 241.417 357.316C241.397 357.766 241.466 358.215 241.62 358.638C241.774 359.061 242.01 359.449 242.315 359.781C242.62 360.112 242.987 360.38 243.395 360.569C243.804 360.758 244.245 360.865 244.695 360.882L244.694 360.884Z" fill="white"/>
<path fill-rule="evenodd" clip-rule="evenodd" d="M277.877 220.216C278.559 220.004 279.158 219.583 279.588 219.011C280.017 218.44 280.256 217.748 280.27 217.033C285.091 209.959 287.985 201.75 288.664 193.216C289.506 182.763 286.987 172.094 280.705 163.248C275.601 156.037 266.846 150.9 258.747 151.03C253.569 151.111 248.588 153.217 244.783 158.196C242.192 159.26 239.866 160.878 237.967 162.937C233.998 167.066 230.934 172.873 229.11 176.758C223.989 187.644 221.885 202.276 225.816 214.041C228.56 222.258 234.148 229.14 243.574 232.62C245.277 233.252 247.044 233.696 248.843 233.944C250.639 234.196 252.457 234.255 254.265 234.119C258.724 233.727 263.029 232.296 266.835 229.94C270.505 227.691 273.813 224.898 276.646 221.657C277.066 221.185 277.477 220.705 277.877 220.216ZM272.726 217.201C271.917 216.136 271.12 215.062 270.336 213.979C267.461 210.011 264.718 205.961 261.822 201.986C260.918 200.676 259.936 199.423 258.88 198.233C258.055 197.363 257.161 196.56 256.085 196.296C255.348 196.122 254.667 196.614 253.987 197.069C252.853 197.89 251.791 198.805 250.811 199.804C247.859 202.628 244.939 205.691 242.154 208.873C239.513 211.9 236.998 215.034 234.615 218.268C237.263 222.294 241.141 225.358 245.67 227.002C246.966 227.492 248.311 227.837 249.681 228.033C251.054 228.23 252.444 228.279 253.828 228.18C257.368 227.87 260.785 226.735 263.806 224.864C266.965 222.935 269.811 220.537 272.247 217.751C272.409 217.571 272.57 217.386 272.726 217.201ZM276.775 211.524C280.152 205.804 282.159 199.38 282.64 192.755C283.297 183.728 281.058 174.525 275.555 166.944C272.268 162.43 267.156 158.914 261.979 157.927C258.677 157.294 255.358 157.806 252.591 159.911C252.662 160.184 252.697 160.465 252.696 160.746C252.697 160.966 252.675 161.184 252.633 161.4L254.038 166.395C254.831 169.903 255.463 173.407 256.158 176.89C256.623 179.231 257.127 181.555 257.58 183.899C258.041 186.271 258.489 188.647 258.883 191.05C260.127 191.606 261.271 192.363 262.269 193.29C263.96 194.81 265.413 196.776 266.629 198.345C269.239 201.668 271.73 205.057 274.301 208.386C275.116 209.438 275.941 210.484 276.776 211.524H276.775ZM246.973 165.299C246.528 165.384 246.071 165.378 245.628 165.281C244.591 165.946 243.638 166.733 242.788 167.625C239.302 171.172 236.646 176.223 235.025 179.577C231.21 187.469 229.128 197.643 230.466 206.8C230.689 208.339 231.021 209.861 231.46 211.353C233.384 209.049 235.371 206.798 237.42 204.604C240.428 201.376 243.553 198.266 246.72 195.408C248.114 194.129 250.032 192.362 252.087 191.333C251.764 187.504 251.401 183.724 250.741 179.979C250.029 175.926 248.98 171.939 247.922 167.908C247.653 167.022 247.337 166.151 246.975 165.299H246.973Z" fill="#73B9E3"/>
<path fill-rule="evenodd" clip-rule="evenodd" d="M654.17 594.69C659.214 584.363 681.256 615.873 672.831 623.704C661.21 634.508 595.091 661.09 584.437 659.506C573.782 657.921 597.291 624.984 608.912 614.181C620.533 603.377 640.097 623.494 654.17 594.69Z" fill="#1A4583"/>
<mask id="mask1_25_330" style="mask-type:luminance" maskUnits="userSpaceOnUse" x="581" y="592" width="94" height="68">
<path d="M654.17 594.69C659.214 584.363 681.256 615.873 672.831 623.704C661.21 634.508 595.091 661.09 584.437 659.506C573.782 657.921 597.291 624.984 608.912 614.181C620.533 603.377 640.097 623.494 654.17 594.69Z" fill="white"/>
</mask>
<g mask="url(#mask1_25_330)">
<path fill-rule="evenodd" clip-rule="evenodd" d="M681.442 597.115C677.855 599.659 670.855 613.464 662.783 618.31C649.205 626.468 615.795 641.626 599.973 646.062C589.664 648.952 572.854 643.551 567.869 644.93C564.767 645.786 566.867 653.894 570.058 654.338C575.774 655.131 591.928 653.164 602.172 649.69C617.726 644.418 649.688 630.477 663.374 622.702C671.698 617.975 681.285 607.302 684.298 603.036C685.561 601.246 683.228 595.846 681.442 597.115Z" fill="white"/>
</g>
<path fill-rule="evenodd" clip-rule="evenodd" d="M454.999 546.213C464.941 540.445 465.699 578.893 454.341 580.704C438.672 583.206 368.951 568.464 360.984 561.215C353.017 553.966 390.885 539.7 406.554 537.199C422.223 534.697 427.269 562.3 454.999 546.213Z" fill="#1A4583"/>
<mask id="mask2_25_330" style="mask-type:luminance" maskUnits="userSpaceOnUse" x="359" y="537" width="104" height="44">
<path d="M454.999 546.213C464.941 540.445 465.699 578.893 454.341 580.704C438.672 583.206 368.951 568.464 360.984 561.215C353.017 553.966 390.885 539.7 406.554 537.199C422.223 534.697 427.269 562.3 454.999 546.213Z" fill="white"/>
</mask>
<g mask="url(#mask2_25_330)">
<path fill-rule="evenodd" clip-rule="evenodd" d="M476.301 563.415C471.902 563.531 458.402 571.097 448.999 570.628C433.179 569.842 396.987 563.826 381.376 558.7C371.203 555.36 360.249 541.511 355.34 539.881C352.286 538.865 349.516 546.769 351.919 548.915C356.225 552.756 370.737 560.119 381.181 562.939C397.036 567.221 431.347 573.441 447.044 574.605C456.591 575.315 470.497 571.788 475.375 569.924C477.421 569.139 478.49 563.355 476.301 563.415Z" fill="white"/>
</g>
<path fill-rule="evenodd" clip-rule="evenodd" d="M562.16 428.417C517.533 449.782 476.076 422.479 459.166 452.446C442.545 481.901 501.406 545.105 452.653 554.44C429.357 558.9 389.904 538.876 385.599 514.439C381.294 490.002 397.385 429.805 426.809 407.822C456.233 385.839 523.232 375.855 562.158 382.548C602.869 389.546 605.148 407.839 562.16 428.417Z" fill="#5FA2CA"/>
<mask id="mask3_25_330" style="mask-type:luminance" maskUnits="userSpaceOnUse" x="384" y="380" width="210" height="176">
<path d="M562.16 428.417C517.533 449.782 476.076 422.479 459.166 452.446C442.545 481.901 501.406 545.105 452.653 554.44C429.357 558.9 389.904 538.876 385.599 514.439C381.294 490.002 397.385 429.805 426.809 407.822C456.233 385.839 523.232 375.855 562.158 382.548C602.869 389.546 605.148 407.839 562.16 428.417Z" fill="white"/>
</mask>
<g mask="url(#mask3_25_330)">
<path fill-rule="evenodd" clip-rule="evenodd" d="M513.457 370.483C514.083 370.836 514.38 371.594 514.617 372.366C514.988 373.635 515.192 374.947 515.225 376.269C515.406 383.388 513.302 390.378 509.22 396.214C506.593 399.926 502.994 402.213 498.955 403.628C492.481 405.899 484.994 406.066 478.475 406.339C472.77 406.488 467.092 407.176 461.517 408.393C455.923 409.672 450.515 411.635 445.603 414.703C439.007 418.689 434.734 424.145 431.569 430.323C424.446 444.218 423.297 462.079 415.362 475.632C413.716 478.45 411.911 481.172 409.955 483.783C408.028 486.348 405.878 488.738 403.53 490.925C397.213 496.77 390.324 501.312 384.531 507.251C381.854 509.967 379.507 512.99 377.54 516.258C377.099 517.049 376.99 517.984 377.237 518.855C377.485 519.727 378.068 520.465 378.859 520.906C379.651 521.348 380.585 521.457 381.457 521.21C382.328 520.962 383.066 520.379 383.508 519.587C385.596 515.676 388.252 512.096 391.389 508.963C396.274 503.943 401.842 499.642 406.924 494.401C409.333 491.897 411.522 489.188 413.464 486.307C415.376 483.474 417.129 480.537 418.716 477.51C426.188 463.536 426.496 445.397 433.336 431.201C436.201 425.255 440.285 420.057 446.518 416.2C451.293 413.403 456.513 411.447 461.95 410.418C467.393 409.328 473.011 408.992 478.52 408.996C485.358 409.044 493.176 409.139 500.076 407.148C505.006 405.722 509.45 403.224 512.877 398.986C515.422 395.788 517.444 392.206 518.865 388.374C520.325 384.514 521.166 380.447 521.356 376.325C521.469 374.02 521.194 371.712 520.542 369.498C519.953 367.528 518.71 365.817 517.017 364.649C516.634 364.415 516.209 364.259 515.766 364.19C515.322 364.12 514.869 364.139 514.433 364.245C513.997 364.35 513.586 364.541 513.223 364.805C512.861 365.07 512.554 365.403 512.32 365.786C512.086 366.169 511.93 366.594 511.861 367.038C511.791 367.481 511.81 367.934 511.916 368.37C512.021 368.806 512.212 369.217 512.476 369.58C512.741 369.942 513.074 370.249 513.457 370.483ZM483.566 453.084C481.038 451.393 478.033 450.562 474.996 450.716C471.086 450.911 467.114 452.476 463.812 454.583C458.317 458.1 453.487 462.56 449.544 467.758C445.474 473.131 442.431 479.189 441.753 485.345C441.194 489.733 441.704 494.118 442.724 498.436C444.227 504.766 446.906 510.961 449.726 516.586C450.949 519.108 453.164 522.263 454.411 525.474C455.152 527.381 455.536 529.296 454.942 531.063C453.09 536.465 448.3 539.864 443.269 543.134C437.697 546.753 431.873 550.226 428.264 555.191C426.106 558.152 424.823 561.66 424.561 565.316C424.543 565.764 424.613 566.212 424.768 566.633C424.924 567.054 425.16 567.44 425.465 567.77C425.769 568.1 426.136 568.367 426.543 568.555C426.95 568.743 427.391 568.849 427.839 568.867C428.745 568.903 429.628 568.578 430.294 567.963C430.96 567.348 431.355 566.494 431.391 565.588C431.377 561.351 433.126 558.118 435.692 555.339C442.972 547.451 455.284 542.434 458.02 531.998C458.497 530.04 458.376 527.984 457.67 526.097C456.385 522.299 453.366 518.505 451.728 515.546C448.835 510.139 445.886 504.212 444.429 498.034C443.432 493.98 443.234 489.771 443.846 485.642C444.824 479.989 447.93 474.508 452.07 469.833C456.09 465.353 460.899 461.65 466.258 458.908C468.537 457.723 471.026 456.995 473.584 456.766C475.726 456.577 477.857 457.235 479.52 458.597C479.882 458.863 480.292 459.055 480.728 459.162C481.164 459.269 481.617 459.289 482.06 459.221C482.504 459.153 482.93 458.998 483.314 458.766C483.697 458.533 484.032 458.227 484.297 457.865C484.563 457.504 484.755 457.093 484.862 456.657C484.969 456.221 484.989 455.769 484.921 455.325C484.853 454.881 484.698 454.455 484.466 454.072C484.233 453.688 483.927 453.353 483.566 453.088V453.084Z" fill="black"/>
<path fill-rule="evenodd" clip-rule="evenodd" d="M574.209 397.64C528.484 445.286 476.508 417.697 456.692 447.788C447.874 461.184 461.307 492.231 477.315 491.253C502.805 489.698 593.491 454.052 609.639 438.45C622.597 425.931 583.939 387.498 574.209 397.64Z" fill="black" fill-opacity="0.2"/>
</g>
<path fill-rule="evenodd" clip-rule="evenodd" d="M613.84 403.641C584.861 479.871 623.852 515.01 630.478 524.057C654.224 556.465 693.798 570.265 669.102 598.902C653.612 616.862 611.698 623.233 591.434 606.903C571.057 590.484 551.41 537.34 546.841 500.39C542.272 463.44 553.478 423.266 564.017 385.204C572.082 356.076 630.775 359.094 613.84 403.641Z" fill="#5FA2CA"/>
<mask id="mask4_25_330" style="mask-type:luminance" maskUnits="userSpaceOnUse" x="545" y="366" width="132" height="251">
<path d="M613.84 403.641C584.861 479.871 623.852 515.01 630.478 524.057C654.224 556.465 693.798 570.265 669.102 598.902C653.612 616.862 611.698 623.233 591.434 606.903C571.057 590.484 551.41 537.34 546.841 500.39C542.272 463.44 553.478 423.266 564.017 385.204C572.082 356.076 630.775 359.094 613.84 403.641Z" fill="white"/>
</mask>
<g mask="url(#mask4_25_330)">
<path fill-rule="evenodd" clip-rule="evenodd" d="M628.486 368.124C624.339 369.441 620.269 372.292 616.542 375.852C611.56 380.607 607.13 386.536 603.741 390.777C592.08 405.237 579.929 425.026 574.66 445.387C571.072 459.246 570.617 473.378 575.858 486.371C576.938 489.092 578.639 491.992 580.997 493.575C581.873 494.187 582.876 494.594 583.931 494.766C584.986 494.937 586.066 494.868 587.09 494.564C589.445 493.928 593.414 491.245 596.74 490.476C598.707 490.022 600.408 490.364 601.072 492.824C605.736 510.61 601.341 530.709 604.421 548.985C605.776 557.034 608.547 564.738 614.046 571.788C617.383 576.068 621.652 578.709 626.393 580.526C636.423 584.369 648.749 584.142 658.158 588.858C662.528 591.052 665.732 594.245 668.363 597.914C672.611 603.832 675.364 610.976 678.676 617.587C678.885 617.984 679.171 618.336 679.516 618.623C679.861 618.909 680.259 619.126 680.687 619.259C681.116 619.392 681.566 619.439 682.013 619.398C682.46 619.357 682.894 619.228 683.291 619.019C683.688 618.81 684.04 618.525 684.327 618.18C684.614 617.835 684.83 617.436 684.963 617.008C685.096 616.579 685.144 616.129 685.102 615.682C685.061 615.235 684.933 614.801 684.724 614.404C680.999 607.654 677.778 600.359 673.118 594.361C669.802 590.095 665.809 586.437 660.481 584.005C650.72 579.547 638.177 580.166 627.822 576.599C623.693 575.177 619.93 573.048 616.942 569.454C611.616 563.039 608.823 555.923 607.363 548.45C603.812 530.252 607.842 510.041 602.8 492.352C602.021 489.533 600.339 488.561 598.294 488.53C594.653 488.478 589.475 492.101 586.632 492.869C585.852 493.097 585.03 493.145 584.228 493.012C583.426 492.878 582.664 492.566 582 492.097C579.938 490.689 578.527 488.087 577.608 485.686C572.843 473.043 573.503 459.393 577.381 446.138C583.128 426.493 595.87 407.77 607.769 394.159C611.214 390.253 615.714 384.757 620.706 380.436C623.791 377.766 627.061 375.565 630.39 374.685C631.252 374.425 631.977 373.835 632.406 373.044C632.836 372.253 632.936 371.325 632.685 370.46C632.433 369.596 631.851 368.865 631.064 368.428C630.278 367.99 629.35 367.881 628.483 368.124H628.486ZM555.712 542.521C555.551 539.447 556.498 535.856 558.116 532.575C559.811 529.13 562.13 525.989 564.642 524.082C565.989 523.004 567.597 522.299 569.303 522.038C570.086 521.912 570.888 521.957 571.652 522.168C572.417 522.379 573.128 522.751 573.736 523.261C575.047 524.484 576.033 526.015 576.604 527.715C577.67 530.566 578.11 533.798 578.55 536.431C579.176 540.392 579.574 544.441 579.931 548.505C580.287 552.596 580.64 556.69 581.251 560.722C581.737 564.242 582.532 567.712 583.627 571.092C585.038 575.49 587.59 579.436 591.023 582.527C598.293 589.228 608.624 591.872 616.034 599.676C618.121 601.965 619.65 604.706 620.503 607.684C621.939 612.316 622.089 617.408 622.012 622.207C622.043 623.107 622.428 623.958 623.084 624.575C623.739 625.193 624.611 625.527 625.512 625.505C626.412 625.483 627.267 625.106 627.891 624.457C628.515 623.808 628.858 622.939 628.845 622.039C628.486 616.62 627.773 610.918 625.736 605.828C624.314 602.268 622.316 598.98 619.363 596.294C611.293 588.863 600.578 586.892 592.787 580.499C589.52 577.841 587.027 574.354 585.569 570.402C584.027 566.079 583.001 561.589 582.512 557.025C581.698 550.069 581.726 542.963 580.898 536.112C580.601 533.303 580.297 529.872 579.375 526.784C578.775 524.545 577.634 522.489 576.053 520.795C574.079 518.79 571.566 518.084 569.013 518.165C566.557 518.303 564.18 519.078 562.113 520.411C558.871 522.429 555.697 525.921 553.242 529.865C550.71 533.928 549.092 538.498 548.879 542.523C548.879 543.429 549.239 544.298 549.88 544.939C550.52 545.58 551.39 545.94 552.296 545.94C553.202 545.94 554.071 545.58 554.712 544.939C555.353 544.298 555.713 543.429 555.713 542.523L555.712 542.521Z" fill="black"/>
<path fill-rule="evenodd" clip-rule="evenodd" d="M635.246 508.776C632.887 510.275 631.123 512.752 630.211 515.976C628.678 521.399 629.051 528.627 629.621 532.414C629.871 534.329 630.221 536.23 630.67 538.109C631.111 540.005 631.714 541.86 632.473 543.653C634.213 547.919 636.581 550.843 639.303 552.971C641.367 554.556 643.69 555.772 646.168 556.566C658.469 560.689 675.99 555.84 686.953 564.378C687.698 564.884 688.612 565.075 689.497 564.91C690.382 564.746 691.167 564.239 691.68 563.499C692.193 562.759 692.394 561.847 692.238 560.96C692.082 560.074 691.583 559.284 690.849 558.764C686.649 556.245 681.981 555.137 677.017 554.83C666.927 554.208 655.726 556.958 646.734 554.641C644.424 554.088 642.256 553.055 640.372 551.609C637.905 549.666 635.959 546.805 634.551 542.86C633.994 541.147 633.596 539.386 633.364 537.599C633.131 535.795 633.008 533.978 632.993 532.159C632.986 529.225 633.336 524.03 634.796 519.739C635.563 517.493 636.658 515.564 638.398 514.845C639.202 514.427 639.808 513.706 640.082 512.842C640.355 511.977 640.274 511.04 639.857 510.235C639.439 509.43 638.718 508.824 637.854 508.551C636.989 508.277 636.052 508.358 635.247 508.776H635.246Z" fill="black"/>
</g>
<path fill-rule="evenodd" clip-rule="evenodd" d="M600.474 294.251C581.606 289.819 563.683 338.994 544.75 339.766C525.818 340.537 495.347 307.718 486.883 298.876C483.309 295.136 477.767 291.53 475.174 290.736C468.501 288.688 457.424 288.051 456.657 291.644C456.149 294.024 467.657 292.236 467.037 295.786C465.461 304.808 470.03 307.105 478.687 307.673C487.668 326.744 526.52 370.115 548.428 372.875C570.336 375.635 604.644 337.401 610.12 324.236C616.076 309.928 610.697 296.65 600.474 294.251Z" fill="#AEC7D6"/>
<mask id="mask5_25_330" style="mask-type:luminance" maskUnits="userSpaceOnUse" x="456" y="289" width="157" height="85">
<path d="M600.474 294.251C581.606 289.819 563.683 338.994 544.75 339.766C525.818 340.537 495.347 307.718 486.883 298.876C483.309 295.136 477.767 291.53 475.174 290.736C468.501 288.688 457.424 288.051 456.657 291.644C456.149 294.024 467.657 292.236 467.037 295.786C465.461 304.808 470.03 307.105 478.687 307.673C487.668 326.744 526.52 370.115 548.428 372.875C570.336 375.635 604.644 337.401 610.12 324.236C616.076 309.928 610.697 296.65 600.474 294.251Z" fill="white"/>
</mask>
<g mask="url(#mask5_25_330)">
<path fill-rule="evenodd" clip-rule="evenodd" d="M602.91 342.751C596.413 343.844 591.493 335.991 585.536 333.088C572.831 326.9 569.686 345.6 555.72 323.975C551.501 317.435 559.173 292.7 568.159 285.609C577.146 278.518 600.262 274.593 609.65 281.416C619.038 288.238 625.621 316.314 624.496 326.537C623.515 335.484 609.404 341.662 602.91 342.751Z" fill="#1A4583"/>
<path fill-rule="evenodd" clip-rule="evenodd" d="M594.123 313.942C589.235 317.822 585.558 341.945 574.153 349.167C560.214 357.993 517.966 359.187 510.484 366.907C503.003 374.626 517.855 395.232 529.251 395.494C544.162 395.832 587.57 380.535 599.941 368.93C610.445 359.079 604.447 335.036 603.474 325.869C602.944 320.847 598.079 310.796 594.123 313.942Z" fill="black" fill-opacity="0.2"/>
</g>
<path fill-rule="evenodd" clip-rule="evenodd" d="M622.288 385.468C625.065 401.386 561.328 410.713 549.963 395.607C532.265 372.092 584.393 359.727 587.37 304.757C588.434 285.119 641.968 286.686 628.907 308.959C621.571 321.473 614.31 339.776 622.288 385.468Z" fill="#1A4583"/>
<mask id="mask6_25_330" style="mask-type:luminance" maskUnits="userSpaceOnUse" x="546" y="291" width="85" height="113">
<path d="M622.288 385.468C625.065 401.386 561.328 410.713 549.963 395.607C532.265 372.092 584.393 359.727 587.37 304.757C588.434 285.119 641.968 286.686 628.907 308.959C621.571 321.473 614.31 339.776 622.288 385.468Z" fill="white"/>
</mask>
<g mask="url(#mask6_25_330)">
<path fill-rule="evenodd" clip-rule="evenodd" d="M614.728 324.224C608.03 321.56 620.601 354.549 611.147 363.851C599.659 375.157 547.35 382.543 545.792 392.06C544.234 401.577 584.205 422.993 601.793 420.955C619.381 418.916 649.171 395.933 651.326 379.81C653.482 363.688 621.425 326.885 614.728 324.224Z" fill="black" fill-opacity="0.2"/>
</g>
<path fill-rule="evenodd" clip-rule="evenodd" d="M610.749 449.407C620.814 458.021 634.748 458.255 641.872 449.929L641.876 449.924C648.999 441.6 646.617 427.869 636.55 419.256L447.208 257.225C443.355 253.929 438.906 251.402 434.102 249.782C425.598 246.915 411.345 242.107 400.78 238.544C399.745 238.195 398.629 238.171 397.58 238.474C396.531 238.777 395.6 239.394 394.911 240.24C394.222 241.087 393.808 242.125 393.725 243.213C393.641 244.302 393.893 245.39 394.445 246.332C400.155 256.075 407.853 269.214 412.207 276.641C414.436 280.445 417.284 283.85 420.634 286.717L610.749 449.407Z" fill="#73B9E3"/>
<mask id="mask7_25_330" style="mask-type:luminance" maskUnits="userSpaceOnUse" x="393" y="238" width="253" height="219">
<path d="M610.749 449.407C620.814 458.021 634.748 458.255 641.872 449.929L641.876 449.924C648.999 441.6 646.617 427.869 636.55 419.256L447.208 257.225C443.355 253.929 438.906 251.402 434.102 249.782C425.598 246.915 411.345 242.107 400.78 238.544C399.745 238.195 398.629 238.171 397.58 238.474C396.531 238.777 395.6 239.394 394.911 240.24C394.222 241.087 393.808 242.125 393.725 243.213C393.641 244.302 393.893 245.39 394.445 246.332C400.155 256.075 407.853 269.214 412.207 276.641C414.436 280.445 417.284 283.85 420.634 286.717L610.749 449.407Z" fill="white"/>
</mask>
<g mask="url(#mask7_25_330)">
<path fill-rule="evenodd" clip-rule="evenodd" d="M396.476 256.329C433.558 291.576 454.202 309.394 497.678 334.723C562.8 372.661 588.454 425.42 612.281 437.92C624.083 444.111 659.809 447.881 640.629 409.715C634.365 397.247 699.442 461.652 687.846 473.929C676.251 486.206 606.279 500.261 571.063 483.376C522.037 459.871 422.808 370.747 393.712 332.907C378.141 312.657 386.019 246.389 396.476 256.329Z" fill="black" fill-opacity="0.2"/>
</g>
<path fill-rule="evenodd" clip-rule="evenodd" d="M616.823 437.063C618.133 438.184 619.835 438.739 621.553 438.605C623.272 438.472 624.867 437.662 625.989 436.353L630.208 431.423C630.211 431.419 630.208 431.415 630.211 431.411C630.209 431.406 630.206 431.402 630.202 431.398L581.046 389.333C580.887 389.197 580.702 389.093 580.503 389.028C580.304 388.963 580.093 388.938 579.884 388.954C579.675 388.97 579.471 389.027 579.284 389.122C579.097 389.217 578.931 389.348 578.794 389.507L575.604 393.236C574.484 394.546 573.93 396.248 574.064 397.966C574.198 399.685 575.009 401.28 576.318 402.401L616.823 437.063Z" fill="white"/>
<path fill-rule="evenodd" clip-rule="evenodd" d="M616.83 297.42C601.209 308.893 626.974 354.452 615.271 369.352C603.567 384.251 557.818 381.913 546.602 386.815C544.822 387.592 539.246 377.361 536.747 376.3C533.094 374.745 533.193 379.771 535.602 384.524C536.701 386.696 526.065 375.193 525.478 377.442C524.069 382.834 531.81 396.575 547.971 398.76C579.755 403.054 626.519 402.92 642.842 388.049C659.165 373.178 652.36 322.262 645.902 309.549C638.886 295.731 625.295 291.199 616.83 297.42Z" fill="#AEC7D6"/>
<mask id="mask8_25_330" style="mask-type:luminance" maskUnits="userSpaceOnUse" x="525" y="294" width="128" height="108">
<path d="M616.83 297.42C601.209 308.893 626.974 354.452 615.271 369.352C603.567 384.251 557.818 381.913 546.602 386.815C544.822 387.592 539.246 377.361 536.747 376.3C533.094 374.745 533.193 379.771 535.602 384.524C536.701 386.696 526.065 375.193 525.478 377.442C524.069 382.834 531.81 396.575 547.971 398.76C579.755 403.054 626.519 402.92 642.842 388.049C659.165 373.178 652.36 322.262 645.902 309.549C638.886 295.731 625.295 291.199 616.83 297.42Z" fill="white"/>
</mask>
<g mask="url(#mask8_25_330)">
<path fill-rule="evenodd" clip-rule="evenodd" d="M655.302 327.054C651.916 332.703 642.749 331.348 636.673 333.994C623.718 339.639 635.898 354.172 610.384 350.754C602.67 349.718 588.837 327.823 589.28 316.385C589.724 304.946 601.744 284.816 613.029 282.105C624.314 279.394 649.941 292.615 656.987 300.109C663.152 306.664 658.689 321.408 655.302 327.054Z" fill="#1A4583"/>
</g>
<path fill-rule="evenodd" clip-rule="evenodd" d="M630.442 268.658C629.91 274.125 626.125 287.914 617.701 288.47C609.048 289.042 606.666 274.855 607.202 269.388C607.738 263.92 617.038 255.785 620.913 255.662C624.788 255.539 630.968 263.311 630.442 268.658Z" fill="#AEC7D6"/>
<path fill-rule="evenodd" clip-rule="evenodd" d="M608.568 280.077C609.127 279.615 611.562 282.868 612.98 282.945C614.399 283.021 615.681 280.391 617.079 280.538C618.476 280.685 619.727 284.419 621.356 283.806C622.985 283.193 626.041 279.481 626.858 276.866C627.676 274.251 627.12 269.684 626.247 268.132C625.48 266.776 623.067 267.01 621.606 267.555C616.83 269.348 610.252 268.831 607.656 266.993C605.06 265.155 602.552 262.779 606.042 256.519C607.247 254.363 614.144 248.878 615.66 253.147C618.707 261.745 619.363 248.7 629.397 258.517C631.811 260.875 631.162 265.498 630.966 268.918C630.77 272.338 629.981 276.024 628.213 279.039C626.249 282.397 625.61 284.809 619.171 289.069C616.427 290.883 604.288 292.486 609.637 285.705C610.556 284.545 608.012 280.534 608.568 280.077Z" fill="black"/>
</svg>
